<svg xmlns="http://www.w3.org/2000/svg" width="96" height="256" viewBox="0 0 96 256"><title>plate-02-stepped-ribbon</title><g transform="translate(96 0) rotate(90)"><svg width="256" height="96" viewBox="0 0 256 96" overflow="hidden"><rect x="0" y="0" width="256" height="96" fill="#943e2e" stroke="none" stroke-width="1"/><g transform="translate(-256 0)"><path d="M0 5 H256 M0 91 H256" fill="none" stroke="#c19a50" stroke-width="3" stroke-linejoin="round" stroke-linecap="round"/><path d="M-64 14 H-27 V37 H-7 V79 H-44 V56 H-64Z" fill="#293c33" stroke="#eee3bc" stroke-width="4" stroke-linejoin="round" stroke-linecap="round"/><circle cx="-56" cy="24" r="1.8" fill="#c19a50" stroke="none" stroke-width="1"/><circle cx="-48" cy="24" r="1.8" fill="#c19a50" stroke="none" stroke-width="1"/><circle cx="-40" cy="24" r="1.8" fill="#c19a50" stroke="none" stroke-width="1"/><circle cx="-56" cy="65" r="1.8" fill="#c19a50" stroke="none" stroke-width="1"/><circle cx="-48" cy="65" r="1.8" fill="#c19a50" stroke="none" stroke-width="1"/><circle cx="-40" cy="65" r="1.8" fill="#c19a50" stroke="none" stroke-width="1"/><path d="M0 14 H37 V37 H57 V79 H20 V56 H0Z" fill="#293c33" stroke="#eee3bc" stroke-width="4" stroke-linejoin="round" stroke-linecap="round"/><circle cx="8" cy="24" r="1.8" fill="#c19a50" stroke="none" stroke-width="1"/><circle cx="16" cy="24" r="1.8" fill="#c19a50" stroke="none" stroke-width="1"/><circle cx="24" cy="24" r="1.8" fill="#c19a50" stroke="none" stroke-width="1"/><circle cx="8" cy="65" r="1.8" fill="#c19a50" stroke="none" stroke-width="1"/><circle cx="16" cy="65" r="1.8" fill="#c19a50" stroke="none" stroke-width="1"/><circle cx="24" cy="65" r="1.8" fill="#c19a50" stroke="none" stroke-width="1"/><path d="M64 14 H101 V37 H121 V79 H84 V56 H64Z" fill="#293c33" stroke="#eee3bc" stroke-width="4" stroke-linejoin="round" stroke-linecap="round"/><circle cx="72" cy="24" r="1.8" fill="#c19a50" stroke="none" stroke-width="1"/><circle cx="80" cy="24" r="1.8" fill="#c19a50" stroke="none" stroke-width="1"/><circle cx="88" cy="24" r="1.8" fill="#c19a50" stroke="none" stroke-width="1"/><circle cx="72" cy="65" r="1.8" fill="#c19a50" stroke="none" stroke-width="1"/><circle cx="80" cy="65" r="1.8" fill="#c19a50" stroke="none" stroke-width="1"/><circle cx="88" cy="65" r="1.8" fill="#c19a50" stroke="none" stroke-width="1"/><path d="M128 14 H165 V37 H185 V79 H148 V56 H128Z" fill="#293c33" stroke="#eee3bc" stroke-width="4" stroke-linejoin="round" stroke-linecap="round"/><circle cx="136" cy="24" r="1.8" fill="#c19a50" stroke="none" stroke-width="1"/><circle cx="144" cy="24" r="1.8" fill="#c19a50" stroke="none" stroke-width="1"/><circle cx="152" cy="24" r="1.8" fill="#c19a50" stroke="none" stroke-width="1"/><circle cx="136" cy="65" r="1.8" fill="#c19a50" stroke="none" stroke-width="1"/><circle cx="144" cy="65" r="1.8" fill="#c19a50" stroke="none" stroke-width="1"/><circle cx="152" cy="65" r="1.8" fill="#c19a50" stroke="none" stroke-width="1"/><path d="M192 14 H229 V37 H249 V79 H212 V56 H192Z" fill="#293c33" stroke="#eee3bc" stroke-width="4" stroke-linejoin="round" stroke-linecap="round"/><circle cx="200" cy="24" r="1.8" fill="#c19a50" stroke="none" stroke-width="1"/><circle cx="208" cy="24" r="1.8" fill="#c19a50" stroke="none" stroke-width="1"/><circle cx="216" cy="24" r="1.8" fill="#c19a50" stroke="none" stroke-width="1"/><circle cx="200" cy="65" r="1.8" fill="#c19a50" stroke="none" stroke-width="1"/><circle cx="208" cy="65" r="1.8" fill="#c19a50" stroke="none" stroke-width="1"/><circle cx="216" cy="65" r="1.8" fill="#c19a50" stroke="none" stroke-width="1"/><path d="M256 14 H293 V37 H313 V79 H276 V56 H256Z" fill="#293c33" stroke="#eee3bc" stroke-width="4" stroke-linejoin="round" stroke-linecap="round"/><circle cx="264" cy="24" r="1.8" fill="#c19a50" stroke="none" stroke-width="1"/><circle cx="272" cy="24" r="1.8" fill="#c19a50" stroke="none" stroke-width="1"/><circle cx="280" cy="24" r="1.8" fill="#c19a50" stroke="none" stroke-width="1"/><circle cx="264" cy="65" r="1.8" fill="#c19a50" stroke="none" stroke-width="1"/><circle cx="272" cy="65" r="1.8" fill="#c19a50" stroke="none" stroke-width="1"/><circle cx="280" cy="65" r="1.8" fill="#c19a50" stroke="none" stroke-width="1"/></g><g transform="translate(0 0)"><path d="M0 5 H256 M0 91 H256" fill="none" stroke="#c19a50" stroke-width="3" stroke-linejoin="round" stroke-linecap="round"/><path d="M-64 14 H-27 V37 H-7 V79 H-44 V56 H-64Z" fill="#293c33" stroke="#eee3bc" stroke-width="4" stroke-linejoin="round" stroke-linecap="round"/><circle cx="-56" cy="24" r="1.8" fill="#c19a50" stroke="none" stroke-width="1"/><circle cx="-48" cy="24" r="1.8" fill="#c19a50" stroke="none" stroke-width="1"/><circle cx="-40" cy="24" r="1.8" fill="#c19a50" stroke="none" stroke-width="1"/><circle cx="-56" cy="65" r="1.8" fill="#c19a50" stroke="none" stroke-width="1"/><circle cx="-48" cy="65" r="1.8" fill="#c19a50" stroke="none" stroke-width="1"/><circle cx="-40" cy="65" r="1.8" fill="#c19a50" stroke="none" stroke-width="1"/><path d="M0 14 H37 V37 H57 V79 H20 V56 H0Z" fill="#293c33" stroke="#eee3bc" stroke-width="4" stroke-linejoin="round" stroke-linecap="round"/><circle cx="8" cy="24" r="1.8" fill="#c19a50" stroke="none" stroke-width="1"/><circle cx="16" cy="24" r="1.8" fill="#c19a50" stroke="none" stroke-width="1"/><circle cx="24" cy="24" r="1.8" fill="#c19a50" stroke="none" stroke-width="1"/><circle cx="8" cy="65" r="1.8" fill="#c19a50" stroke="none" stroke-width="1"/><circle cx="16" cy="65" r="1.8" fill="#c19a50" stroke="none" stroke-width="1"/><circle cx="24" cy="65" r="1.8" fill="#c19a50" stroke="none" stroke-width="1"/><path d="M64 14 H101 V37 H121 V79 H84 V56 H64Z" fill="#293c33" stroke="#eee3bc" stroke-width="4" stroke-linejoin="round" stroke-linecap="round"/><circle cx="72" cy="24" r="1.8" fill="#c19a50" stroke="none" stroke-width="1"/><circle cx="80" cy="24" r="1.8" fill="#c19a50" stroke="none" stroke-width="1"/><circle cx="88" cy="24" r="1.8" fill="#c19a50" stroke="none" stroke-width="1"/><circle cx="72" cy="65" r="1.8" fill="#c19a50" stroke="none" stroke-width="1"/><circle cx="80" cy="65" r="1.8" fill="#c19a50" stroke="none" stroke-width="1"/><circle cx="88" cy="65" r="1.8" fill="#c19a50" stroke="none" stroke-width="1"/><path d="M128 14 H165 V37 H185 V79 H148 V56 H128Z" fill="#293c33" stroke="#eee3bc" stroke-width="4" stroke-linejoin="round" stroke-linecap="round"/><circle cx="136" cy="24" r="1.8" fill="#c19a50" stroke="none" stroke-width="1"/><circle cx="144" cy="24" r="1.8" fill="#c19a50" stroke="none" stroke-width="1"/><circle cx="152" cy="24" r="1.8" fill="#c19a50" stroke="none" stroke-width="1"/><circle cx="136" cy="65" r="1.8" fill="#c19a50" stroke="none" stroke-width="1"/><circle cx="144" cy="65" r="1.8" fill="#c19a50" stroke="none" stroke-width="1"/><circle cx="152" cy="65" r="1.8" fill="#c19a50" stroke="none" stroke-width="1"/><path d="M192 14 H229 V37 H249 V79 H212 V56 H192Z" fill="#293c33" stroke="#eee3bc" stroke-width="4" stroke-linejoin="round" stroke-linecap="round"/><circle cx="200" cy="24" r="1.8" fill="#c19a50" stroke="none" stroke-width="1"/><circle cx="208" cy="24" r="1.8" fill="#c19a50" stroke="none" stroke-width="1"/><circle cx="216" cy="24" r="1.8" fill="#c19a50" stroke="none" stroke-width="1"/><circle cx="200" cy="65" r="1.8" fill="#c19a50" stroke="none" stroke-width="1"/><circle cx="208" cy="65" r="1.8" fill="#c19a50" stroke="none" stroke-width="1"/><circle cx="216" cy="65" r="1.8" fill="#c19a50" stroke="none" stroke-width="1"/><path d="M256 14 H293 V37 H313 V79 H276 V56 H256Z" fill="#293c33" stroke="#eee3bc" stroke-width="4" stroke-linejoin="round" stroke-linecap="round"/><circle cx="264" cy="24" r="1.8" fill="#c19a50" stroke="none" stroke-width="1"/><circle cx="272" cy="24" r="1.8" fill="#c19a50" stroke="none" stroke-width="1"/><circle cx="280" cy="24" r="1.8" fill="#c19a50" stroke="none" stroke-width="1"/><circle cx="264" cy="65" r="1.8" fill="#c19a50" stroke="none" stroke-width="1"/><circle cx="272" cy="65" r="1.8" fill="#c19a50" stroke="none" stroke-width="1"/><circle cx="280" cy="65" r="1.8" fill="#c19a50" stroke="none" stroke-width="1"/></g><g transform="translate(256 0)"><path d="M0 5 H256 M0 91 H256" fill="none" stroke="#c19a50" stroke-width="3" stroke-linejoin="round" stroke-linecap="round"/><path d="M-64 14 H-27 V37 H-7 V79 H-44 V56 H-64Z" fill="#293c33" stroke="#eee3bc" stroke-width="4" stroke-linejoin="round" stroke-linecap="round"/><circle cx="-56" cy="24" r="1.8" fill="#c19a50" stroke="none" stroke-width="1"/><circle cx="-48" cy="24" r="1.8" fill="#c19a50" stroke="none" stroke-width="1"/><circle cx="-40" cy="24" r="1.8" fill="#c19a50" stroke="none" stroke-width="1"/><circle cx="-56" cy="65" r="1.8" fill="#c19a50" stroke="none" stroke-width="1"/><circle cx="-48" cy="65" r="1.8" fill="#c19a50" stroke="none" stroke-width="1"/><circle cx="-40" cy="65" r="1.8" fill="#c19a50" stroke="none" stroke-width="1"/><path d="M0 14 H37 V37 H57 V79 H20 V56 H0Z" fill="#293c33" stroke="#eee3bc" stroke-width="4" stroke-linejoin="round" stroke-linecap="round"/><circle cx="8" cy="24" r="1.8" fill="#c19a50" stroke="none" stroke-width="1"/><circle cx="16" cy="24" r="1.8" fill="#c19a50" stroke="none" stroke-width="1"/><circle cx="24" cy="24" r="1.8" fill="#c19a50" stroke="none" stroke-width="1"/><circle cx="8" cy="65" r="1.8" fill="#c19a50" stroke="none" stroke-width="1"/><circle cx="16" cy="65" r="1.8" fill="#c19a50" stroke="none" stroke-width="1"/><circle cx="24" cy="65" r="1.8" fill="#c19a50" stroke="none" stroke-width="1"/><path d="M64 14 H101 V37 H121 V79 H84 V56 H64Z" fill="#293c33" stroke="#eee3bc" stroke-width="4" stroke-linejoin="round" stroke-linecap="round"/><circle cx="72" cy="24" r="1.8" fill="#c19a50" stroke="none" stroke-width="1"/><circle cx="80" cy="24" r="1.8" fill="#c19a50" stroke="none" stroke-width="1"/><circle cx="88" cy="24" r="1.8" fill="#c19a50" stroke="none" stroke-width="1"/><circle cx="72" cy="65" r="1.8" fill="#c19a50" stroke="none" stroke-width="1"/><circle cx="80" cy="65" r="1.8" fill="#c19a50" stroke="none" stroke-width="1"/><circle cx="88" cy="65" r="1.8" fill="#c19a50" stroke="none" stroke-width="1"/><path d="M128 14 H165 V37 H185 V79 H148 V56 H128Z" fill="#293c33" stroke="#eee3bc" stroke-width="4" stroke-linejoin="round" stroke-linecap="round"/><circle cx="136" cy="24" r="1.8" fill="#c19a50" stroke="none" stroke-width="1"/><circle cx="144" cy="24" r="1.8" fill="#c19a50" stroke="none" stroke-width="1"/><circle cx="152" cy="24" r="1.8" fill="#c19a50" stroke="none" stroke-width="1"/><circle cx="136" cy="65" r="1.8" fill="#c19a50" stroke="none" stroke-width="1"/><circle cx="144" cy="65" r="1.8" fill="#c19a50" stroke="none" stroke-width="1"/><circle cx="152" cy="65" r="1.8" fill="#c19a50" stroke="none" stroke-width="1"/><path d="M192 14 H229 V37 H249 V79 H212 V56 H192Z" fill="#293c33" stroke="#eee3bc" stroke-width="4" stroke-linejoin="round" stroke-linecap="round"/><circle cx="200" cy="24" r="1.8" fill="#c19a50" stroke="none" stroke-width="1"/><circle cx="208" cy="24" r="1.8" fill="#c19a50" stroke="none" stroke-width="1"/><circle cx="216" cy="24" r="1.8" fill="#c19a50" stroke="none" stroke-width="1"/><circle cx="200" cy="65" r="1.8" fill="#c19a50" stroke="none" stroke-width="1"/><circle cx="208" cy="65" r="1.8" fill="#c19a50" stroke="none" stroke-width="1"/><circle cx="216" cy="65" r="1.8" fill="#c19a50" stroke="none" stroke-width="1"/><path d="M256 14 H293 V37 H313 V79 H276 V56 H256Z" fill="#293c33" stroke="#eee3bc" stroke-width="4" stroke-linejoin="round" stroke-linecap="round"/><circle cx="264" cy="24" r="1.8" fill="#c19a50" stroke="none" stroke-width="1"/><circle cx="272" cy="24" r="1.8" fill="#c19a50" stroke="none" stroke-width="1"/><circle cx="280" cy="24" r="1.8" fill="#c19a50" stroke="none" stroke-width="1"/><circle cx="264" cy="65" r="1.8" fill="#c19a50" stroke="none" stroke-width="1"/><circle cx="272" cy="65" r="1.8" fill="#c19a50" stroke="none" stroke-width="1"/><circle cx="280" cy="65" r="1.8" fill="#c19a50" stroke="none" stroke-width="1"/></g></svg></g></svg>
