<svg xmlns="http://www.w3.org/2000/svg" width="256" height="96" viewBox="0 0 256 96"><title>plate-38-diagonal-meander</title><svg width="256" height="96" viewBox="0 0 256 96" overflow="hidden"><rect x="0" y="0" width="256" height="96" fill="#943e2e" stroke="none" stroke-width="1"/><g transform="translate(-256 0)"><path d="M0 5 H256 M0 91 H256" fill="none" stroke="#c19a50" stroke-width="3" stroke-linejoin="round" stroke-linecap="round"/><path d="M3 19.5 H58 V76.5 H3Z M3 19.5 L58 76.5" fill="none" stroke="#c19a50" stroke-width="1.7" stroke-linejoin="round" stroke-linecap="round"/><path d="M11 23.5 H50 V72.5 H11Z M11 23.5 L50 72.5" fill="none" stroke="#c19a50" stroke-width="1.7" stroke-linejoin="round" stroke-linecap="round"/><path d="M19 27.5 H42 V68.5 H19Z M19 27.5 L42 68.5" fill="none" stroke="#c19a50" stroke-width="1.7" stroke-linejoin="round" stroke-linecap="round"/><path d="M67 19.5 H122 V76.5 H67Z M67 19.5 L122 76.5" fill="none" stroke="#c19a50" stroke-width="1.7" stroke-linejoin="round" stroke-linecap="round"/><path d="M75 23.5 H114 V72.5 H75Z M75 23.5 L114 72.5" fill="none" stroke="#c19a50" stroke-width="1.7" stroke-linejoin="round" stroke-linecap="round"/><path d="M83 27.5 H106 V68.5 H83Z M83 27.5 L106 68.5" fill="none" stroke="#c19a50" stroke-width="1.7" stroke-linejoin="round" stroke-linecap="round"/><path d="M131 19.5 H186 V76.5 H131Z M131 19.5 L186 76.5" fill="none" stroke="#c19a50" stroke-width="1.7" stroke-linejoin="round" stroke-linecap="round"/><path d="M139 23.5 H178 V72.5 H139Z M139 23.5 L178 72.5" fill="none" stroke="#c19a50" stroke-width="1.7" stroke-linejoin="round" stroke-linecap="round"/><path d="M147 27.5 H170 V68.5 H147Z M147 27.5 L170 68.5" fill="none" stroke="#c19a50" stroke-width="1.7" stroke-linejoin="round" stroke-linecap="round"/><path d="M195 19.5 H250 V76.5 H195Z M195 19.5 L250 76.5" fill="none" stroke="#c19a50" stroke-width="1.7" stroke-linejoin="round" stroke-linecap="round"/><path d="M203 23.5 H242 V72.5 H203Z M203 23.5 L242 72.5" fill="none" stroke="#c19a50" stroke-width="1.7" stroke-linejoin="round" stroke-linecap="round"/><path d="M211 27.5 H234 V68.5 H211Z M211 27.5 L234 68.5" fill="none" stroke="#c19a50" stroke-width="1.7" stroke-linejoin="round" stroke-linecap="round"/></g><g transform="translate(0 0)"><path d="M0 5 H256 M0 91 H256" fill="none" stroke="#c19a50" stroke-width="3" stroke-linejoin="round" stroke-linecap="round"/><path d="M3 19.5 H58 V76.5 H3Z M3 19.5 L58 76.5" fill="none" stroke="#c19a50" stroke-width="1.7" stroke-linejoin="round" stroke-linecap="round"/><path d="M11 23.5 H50 V72.5 H11Z M11 23.5 L50 72.5" fill="none" stroke="#c19a50" stroke-width="1.7" stroke-linejoin="round" stroke-linecap="round"/><path d="M19 27.5 H42 V68.5 H19Z M19 27.5 L42 68.5" fill="none" stroke="#c19a50" stroke-width="1.7" stroke-linejoin="round" stroke-linecap="round"/><path d="M67 19.5 H122 V76.5 H67Z M67 19.5 L122 76.5" fill="none" stroke="#c19a50" stroke-width="1.7" stroke-linejoin="round" stroke-linecap="round"/><path d="M75 23.5 H114 V72.5 H75Z M75 23.5 L114 72.5" fill="none" stroke="#c19a50" stroke-width="1.7" stroke-linejoin="round" stroke-linecap="round"/><path d="M83 27.5 H106 V68.5 H83Z M83 27.5 L106 68.5" fill="none" stroke="#c19a50" stroke-width="1.7" stroke-linejoin="round" stroke-linecap="round"/><path d="M131 19.5 H186 V76.5 H131Z M131 19.5 L186 76.5" fill="none" stroke="#c19a50" stroke-width="1.7" stroke-linejoin="round" stroke-linecap="round"/><path d="M139 23.5 H178 V72.5 H139Z M139 23.5 L178 72.5" fill="none" stroke="#c19a50" stroke-width="1.7" stroke-linejoin="round" stroke-linecap="round"/><path d="M147 27.5 H170 V68.5 H147Z M147 27.5 L170 68.5" fill="none" stroke="#c19a50" stroke-width="1.7" stroke-linejoin="round" stroke-linecap="round"/><path d="M195 19.5 H250 V76.5 H195Z M195 19.5 L250 76.5" fill="none" stroke="#c19a50" stroke-width="1.7" stroke-linejoin="round" stroke-linecap="round"/><path d="M203 23.5 H242 V72.5 H203Z M203 23.5 L242 72.5" fill="none" stroke="#c19a50" stroke-width="1.7" stroke-linejoin="round" stroke-linecap="round"/><path d="M211 27.5 H234 V68.5 H211Z M211 27.5 L234 68.5" fill="none" stroke="#c19a50" stroke-width="1.7" stroke-linejoin="round" stroke-linecap="round"/></g><g transform="translate(256 0)"><path d="M0 5 H256 M0 91 H256" fill="none" stroke="#c19a50" stroke-width="3" stroke-linejoin="round" stroke-linecap="round"/><path d="M3 19.5 H58 V76.5 H3Z M3 19.5 L58 76.5" fill="none" stroke="#c19a50" stroke-width="1.7" stroke-linejoin="round" stroke-linecap="round"/><path d="M11 23.5 H50 V72.5 H11Z M11 23.5 L50 72.5" fill="none" stroke="#c19a50" stroke-width="1.7" stroke-linejoin="round" stroke-linecap="round"/><path d="M19 27.5 H42 V68.5 H19Z M19 27.5 L42 68.5" fill="none" stroke="#c19a50" stroke-width="1.7" stroke-linejoin="round" stroke-linecap="round"/><path d="M67 19.5 H122 V76.5 H67Z M67 19.5 L122 76.5" fill="none" stroke="#c19a50" stroke-width="1.7" stroke-linejoin="round" stroke-linecap="round"/><path d="M75 23.5 H114 V72.5 H75Z M75 23.5 L114 72.5" fill="none" stroke="#c19a50" stroke-width="1.7" stroke-linejoin="round" stroke-linecap="round"/><path d="M83 27.5 H106 V68.5 H83Z M83 27.5 L106 68.5" fill="none" stroke="#c19a50" stroke-width="1.7" stroke-linejoin="round" stroke-linecap="round"/><path d="M131 19.5 H186 V76.5 H131Z M131 19.5 L186 76.5" fill="none" stroke="#c19a50" stroke-width="1.7" stroke-linejoin="round" stroke-linecap="round"/><path d="M139 23.5 H178 V72.5 H139Z M139 23.5 L178 72.5" fill="none" stroke="#c19a50" stroke-width="1.7" stroke-linejoin="round" stroke-linecap="round"/><path d="M147 27.5 H170 V68.5 H147Z M147 27.5 L170 68.5" fill="none" stroke="#c19a50" stroke-width="1.7" stroke-linejoin="round" stroke-linecap="round"/><path d="M195 19.5 H250 V76.5 H195Z M195 19.5 L250 76.5" fill="none" stroke="#c19a50" stroke-width="1.7" stroke-linejoin="round" stroke-linecap="round"/><path d="M203 23.5 H242 V72.5 H203Z M203 23.5 L242 72.5" fill="none" stroke="#c19a50" stroke-width="1.7" stroke-linejoin="round" stroke-linecap="round"/><path d="M211 27.5 H234 V68.5 H211Z M211 27.5 L234 68.5" fill="none" stroke="#c19a50" stroke-width="1.7" stroke-linejoin="round" stroke-linecap="round"/></g></svg></svg>
