<svg xmlns="http://www.w3.org/2000/svg" width="448" height="448" viewBox="0 0 448 448"><title>plate-36-greek-key nine-slice border</title><g transform="translate(0 0)"><rect x="0" y="0" width="96" height="96" fill="#293c33" stroke="none" stroke-width="1"/><path d="M96 5 H5 V96 M96 91 H91 V96" fill="none" stroke="#c19a50" stroke-width="3" stroke-linejoin="round" stroke-linecap="round"/><path d="M48 19 L77 48 L48 77 L19 48Z" fill="#285574" stroke="#eee3bc" stroke-width="3" stroke-linejoin="round" stroke-linecap="round"/><path d="M43.1 34 H52.9 V43.1 H62 V52.9 H52.9 V62 H43.1 V52.9 H34 V43.1 H43.1Z" fill="#943e2e" stroke="#eee3bc" stroke-width="2" stroke-linejoin="round" stroke-linecap="round"/></g><g transform="translate(448 0) rotate(90)"><rect x="0" y="0" width="96" height="96" fill="#293c33" stroke="none" stroke-width="1"/><path d="M96 5 H5 V96 M96 91 H91 V96" fill="none" stroke="#c19a50" stroke-width="3" stroke-linejoin="round" stroke-linecap="round"/><path d="M48 19 L77 48 L48 77 L19 48Z" fill="#285574" stroke="#eee3bc" stroke-width="3" stroke-linejoin="round" stroke-linecap="round"/><path d="M43.1 34 H52.9 V43.1 H62 V52.9 H52.9 V62 H43.1 V52.9 H34 V43.1 H43.1Z" fill="#943e2e" stroke="#eee3bc" stroke-width="2" stroke-linejoin="round" stroke-linecap="round"/></g><g transform="translate(448 448) rotate(180)"><rect x="0" y="0" width="96" height="96" fill="#293c33" stroke="none" stroke-width="1"/><path d="M96 5 H5 V96 M96 91 H91 V96" fill="none" stroke="#c19a50" stroke-width="3" stroke-linejoin="round" stroke-linecap="round"/><path d="M48 19 L77 48 L48 77 L19 48Z" fill="#285574" stroke="#eee3bc" stroke-width="3" stroke-linejoin="round" stroke-linecap="round"/><path d="M43.1 34 H52.9 V43.1 H62 V52.9 H52.9 V62 H43.1 V52.9 H34 V43.1 H43.1Z" fill="#943e2e" stroke="#eee3bc" stroke-width="2" stroke-linejoin="round" stroke-linecap="round"/></g><g transform="translate(0 448) rotate(270)"><rect x="0" y="0" width="96" height="96" fill="#293c33" stroke="none" stroke-width="1"/><path d="M96 5 H5 V96 M96 91 H91 V96" fill="none" stroke="#c19a50" stroke-width="3" stroke-linejoin="round" stroke-linecap="round"/><path d="M48 19 L77 48 L48 77 L19 48Z" fill="#285574" stroke="#eee3bc" stroke-width="3" stroke-linejoin="round" stroke-linecap="round"/><path d="M43.1 34 H52.9 V43.1 H62 V52.9 H52.9 V62 H43.1 V52.9 H34 V43.1 H43.1Z" fill="#943e2e" stroke="#eee3bc" stroke-width="2" stroke-linejoin="round" stroke-linecap="round"/></g><g transform="translate(96 0)"><svg width="256" height="96" viewBox="0 0 256 96" overflow="hidden"><rect x="0" y="0" width="256" height="96" fill="#293c33" stroke="none" stroke-width="1"/><g transform="translate(-256 0)"><path d="M0 5 H256 M0 91 H256" fill="none" stroke="#c19a50" stroke-width="3" stroke-linejoin="round" stroke-linecap="round"/><path d="M13 12 H36 V28 H57 V12 H79 V28 H107" fill="none" stroke="#c19a50" stroke-width="3" stroke-linejoin="round" stroke-linecap="round"/><path d="M13 40 H36 V56 H57 V40 H79 V56 H107" fill="none" stroke="#c19a50" stroke-width="3" stroke-linejoin="round" stroke-linecap="round"/><path d="M13 68 H36 V84 H57 V68 H79 V84 H107" fill="none" stroke="#c19a50" stroke-width="3" stroke-linejoin="round" stroke-linecap="round"/><path d="M141 12 H164 V28 H185 V12 H207 V28 H235" fill="none" stroke="#c19a50" stroke-width="3" stroke-linejoin="round" stroke-linecap="round"/><path d="M141 40 H164 V56 H185 V40 H207 V56 H235" fill="none" stroke="#c19a50" stroke-width="3" stroke-linejoin="round" stroke-linecap="round"/><path d="M141 68 H164 V84 H185 V68 H207 V84 H235" fill="none" stroke="#c19a50" stroke-width="3" stroke-linejoin="round" stroke-linecap="round"/></g><g transform="translate(0 0)"><path d="M0 5 H256 M0 91 H256" fill="none" stroke="#c19a50" stroke-width="3" stroke-linejoin="round" stroke-linecap="round"/><path d="M13 12 H36 V28 H57 V12 H79 V28 H107" fill="none" stroke="#c19a50" stroke-width="3" stroke-linejoin="round" stroke-linecap="round"/><path d="M13 40 H36 V56 H57 V40 H79 V56 H107" fill="none" stroke="#c19a50" stroke-width="3" stroke-linejoin="round" stroke-linecap="round"/><path d="M13 68 H36 V84 H57 V68 H79 V84 H107" fill="none" stroke="#c19a50" stroke-width="3" stroke-linejoin="round" stroke-linecap="round"/><path d="M141 12 H164 V28 H185 V12 H207 V28 H235" fill="none" stroke="#c19a50" stroke-width="3" stroke-linejoin="round" stroke-linecap="round"/><path d="M141 40 H164 V56 H185 V40 H207 V56 H235" fill="none" stroke="#c19a50" stroke-width="3" stroke-linejoin="round" stroke-linecap="round"/><path d="M141 68 H164 V84 H185 V68 H207 V84 H235" fill="none" stroke="#c19a50" stroke-width="3" stroke-linejoin="round" stroke-linecap="round"/></g><g transform="translate(256 0)"><path d="M0 5 H256 M0 91 H256" fill="none" stroke="#c19a50" stroke-width="3" stroke-linejoin="round" stroke-linecap="round"/><path d="M13 12 H36 V28 H57 V12 H79 V28 H107" fill="none" stroke="#c19a50" stroke-width="3" stroke-linejoin="round" stroke-linecap="round"/><path d="M13 40 H36 V56 H57 V40 H79 V56 H107" fill="none" stroke="#c19a50" stroke-width="3" stroke-linejoin="round" stroke-linecap="round"/><path d="M13 68 H36 V84 H57 V68 H79 V84 H107" fill="none" stroke="#c19a50" stroke-width="3" stroke-linejoin="round" stroke-linecap="round"/><path d="M141 12 H164 V28 H185 V12 H207 V28 H235" fill="none" stroke="#c19a50" stroke-width="3" stroke-linejoin="round" stroke-linecap="round"/><path d="M141 40 H164 V56 H185 V40 H207 V56 H235" fill="none" stroke="#c19a50" stroke-width="3" stroke-linejoin="round" stroke-linecap="round"/><path d="M141 68 H164 V84 H185 V68 H207 V84 H235" fill="none" stroke="#c19a50" stroke-width="3" stroke-linejoin="round" stroke-linecap="round"/></g></svg></g><g transform="translate(448 96) rotate(90)"><svg width="256" height="96" viewBox="0 0 256 96" overflow="hidden"><rect x="0" y="0" width="256" height="96" fill="#293c33" stroke="none" stroke-width="1"/><g transform="translate(-256 0)"><path d="M0 5 H256 M0 91 H256" fill="none" stroke="#c19a50" stroke-width="3" stroke-linejoin="round" stroke-linecap="round"/><path d="M13 12 H36 V28 H57 V12 H79 V28 H107" fill="none" stroke="#c19a50" stroke-width="3" stroke-linejoin="round" stroke-linecap="round"/><path d="M13 40 H36 V56 H57 V40 H79 V56 H107" fill="none" stroke="#c19a50" stroke-width="3" stroke-linejoin="round" stroke-linecap="round"/><path d="M13 68 H36 V84 H57 V68 H79 V84 H107" fill="none" stroke="#c19a50" stroke-width="3" stroke-linejoin="round" stroke-linecap="round"/><path d="M141 12 H164 V28 H185 V12 H207 V28 H235" fill="none" stroke="#c19a50" stroke-width="3" stroke-linejoin="round" stroke-linecap="round"/><path d="M141 40 H164 V56 H185 V40 H207 V56 H235" fill="none" stroke="#c19a50" stroke-width="3" stroke-linejoin="round" stroke-linecap="round"/><path d="M141 68 H164 V84 H185 V68 H207 V84 H235" fill="none" stroke="#c19a50" stroke-width="3" stroke-linejoin="round" stroke-linecap="round"/></g><g transform="translate(0 0)"><path d="M0 5 H256 M0 91 H256" fill="none" stroke="#c19a50" stroke-width="3" stroke-linejoin="round" stroke-linecap="round"/><path d="M13 12 H36 V28 H57 V12 H79 V28 H107" fill="none" stroke="#c19a50" stroke-width="3" stroke-linejoin="round" stroke-linecap="round"/><path d="M13 40 H36 V56 H57 V40 H79 V56 H107" fill="none" stroke="#c19a50" stroke-width="3" stroke-linejoin="round" stroke-linecap="round"/><path d="M13 68 H36 V84 H57 V68 H79 V84 H107" fill="none" stroke="#c19a50" stroke-width="3" stroke-linejoin="round" stroke-linecap="round"/><path d="M141 12 H164 V28 H185 V12 H207 V28 H235" fill="none" stroke="#c19a50" stroke-width="3" stroke-linejoin="round" stroke-linecap="round"/><path d="M141 40 H164 V56 H185 V40 H207 V56 H235" fill="none" stroke="#c19a50" stroke-width="3" stroke-linejoin="round" stroke-linecap="round"/><path d="M141 68 H164 V84 H185 V68 H207 V84 H235" fill="none" stroke="#c19a50" stroke-width="3" stroke-linejoin="round" stroke-linecap="round"/></g><g transform="translate(256 0)"><path d="M0 5 H256 M0 91 H256" fill="none" stroke="#c19a50" stroke-width="3" stroke-linejoin="round" stroke-linecap="round"/><path d="M13 12 H36 V28 H57 V12 H79 V28 H107" fill="none" stroke="#c19a50" stroke-width="3" stroke-linejoin="round" stroke-linecap="round"/><path d="M13 40 H36 V56 H57 V40 H79 V56 H107" fill="none" stroke="#c19a50" stroke-width="3" stroke-linejoin="round" stroke-linecap="round"/><path d="M13 68 H36 V84 H57 V68 H79 V84 H107" fill="none" stroke="#c19a50" stroke-width="3" stroke-linejoin="round" stroke-linecap="round"/><path d="M141 12 H164 V28 H185 V12 H207 V28 H235" fill="none" stroke="#c19a50" stroke-width="3" stroke-linejoin="round" stroke-linecap="round"/><path d="M141 40 H164 V56 H185 V40 H207 V56 H235" fill="none" stroke="#c19a50" stroke-width="3" stroke-linejoin="round" stroke-linecap="round"/><path d="M141 68 H164 V84 H185 V68 H207 V84 H235" fill="none" stroke="#c19a50" stroke-width="3" stroke-linejoin="round" stroke-linecap="round"/></g></svg></g><g transform="translate(352 448) rotate(180)"><svg width="256" height="96" viewBox="0 0 256 96" overflow="hidden"><rect x="0" y="0" width="256" height="96" fill="#293c33" stroke="none" stroke-width="1"/><g transform="translate(-256 0)"><path d="M0 5 H256 M0 91 H256" fill="none" stroke="#c19a50" stroke-width="3" stroke-linejoin="round" stroke-linecap="round"/><path d="M13 12 H36 V28 H57 V12 H79 V28 H107" fill="none" stroke="#c19a50" stroke-width="3" stroke-linejoin="round" stroke-linecap="round"/><path d="M13 40 H36 V56 H57 V40 H79 V56 H107" fill="none" stroke="#c19a50" stroke-width="3" stroke-linejoin="round" stroke-linecap="round"/><path d="M13 68 H36 V84 H57 V68 H79 V84 H107" fill="none" stroke="#c19a50" stroke-width="3" stroke-linejoin="round" stroke-linecap="round"/><path d="M141 12 H164 V28 H185 V12 H207 V28 H235" fill="none" stroke="#c19a50" stroke-width="3" stroke-linejoin="round" stroke-linecap="round"/><path d="M141 40 H164 V56 H185 V40 H207 V56 H235" fill="none" stroke="#c19a50" stroke-width="3" stroke-linejoin="round" stroke-linecap="round"/><path d="M141 68 H164 V84 H185 V68 H207 V84 H235" fill="none" stroke="#c19a50" stroke-width="3" stroke-linejoin="round" stroke-linecap="round"/></g><g transform="translate(0 0)"><path d="M0 5 H256 M0 91 H256" fill="none" stroke="#c19a50" stroke-width="3" stroke-linejoin="round" stroke-linecap="round"/><path d="M13 12 H36 V28 H57 V12 H79 V28 H107" fill="none" stroke="#c19a50" stroke-width="3" stroke-linejoin="round" stroke-linecap="round"/><path d="M13 40 H36 V56 H57 V40 H79 V56 H107" fill="none" stroke="#c19a50" stroke-width="3" stroke-linejoin="round" stroke-linecap="round"/><path d="M13 68 H36 V84 H57 V68 H79 V84 H107" fill="none" stroke="#c19a50" stroke-width="3" stroke-linejoin="round" stroke-linecap="round"/><path d="M141 12 H164 V28 H185 V12 H207 V28 H235" fill="none" stroke="#c19a50" stroke-width="3" stroke-linejoin="round" stroke-linecap="round"/><path d="M141 40 H164 V56 H185 V40 H207 V56 H235" fill="none" stroke="#c19a50" stroke-width="3" stroke-linejoin="round" stroke-linecap="round"/><path d="M141 68 H164 V84 H185 V68 H207 V84 H235" fill="none" stroke="#c19a50" stroke-width="3" stroke-linejoin="round" stroke-linecap="round"/></g><g transform="translate(256 0)"><path d="M0 5 H256 M0 91 H256" fill="none" stroke="#c19a50" stroke-width="3" stroke-linejoin="round" stroke-linecap="round"/><path d="M13 12 H36 V28 H57 V12 H79 V28 H107" fill="none" stroke="#c19a50" stroke-width="3" stroke-linejoin="round" stroke-linecap="round"/><path d="M13 40 H36 V56 H57 V40 H79 V56 H107" fill="none" stroke="#c19a50" stroke-width="3" stroke-linejoin="round" stroke-linecap="round"/><path d="M13 68 H36 V84 H57 V68 H79 V84 H107" fill="none" stroke="#c19a50" stroke-width="3" stroke-linejoin="round" stroke-linecap="round"/><path d="M141 12 H164 V28 H185 V12 H207 V28 H235" fill="none" stroke="#c19a50" stroke-width="3" stroke-linejoin="round" stroke-linecap="round"/><path d="M141 40 H164 V56 H185 V40 H207 V56 H235" fill="none" stroke="#c19a50" stroke-width="3" stroke-linejoin="round" stroke-linecap="round"/><path d="M141 68 H164 V84 H185 V68 H207 V84 H235" fill="none" stroke="#c19a50" stroke-width="3" stroke-linejoin="round" stroke-linecap="round"/></g></svg></g><g transform="translate(0 352) rotate(270)"><svg width="256" height="96" viewBox="0 0 256 96" overflow="hidden"><rect x="0" y="0" width="256" height="96" fill="#293c33" stroke="none" stroke-width="1"/><g transform="translate(-256 0)"><path d="M0 5 H256 M0 91 H256" fill="none" stroke="#c19a50" stroke-width="3" stroke-linejoin="round" stroke-linecap="round"/><path d="M13 12 H36 V28 H57 V12 H79 V28 H107" fill="none" stroke="#c19a50" stroke-width="3" stroke-linejoin="round" stroke-linecap="round"/><path d="M13 40 H36 V56 H57 V40 H79 V56 H107" fill="none" stroke="#c19a50" stroke-width="3" stroke-linejoin="round" stroke-linecap="round"/><path d="M13 68 H36 V84 H57 V68 H79 V84 H107" fill="none" stroke="#c19a50" stroke-width="3" stroke-linejoin="round" stroke-linecap="round"/><path d="M141 12 H164 V28 H185 V12 H207 V28 H235" fill="none" stroke="#c19a50" stroke-width="3" stroke-linejoin="round" stroke-linecap="round"/><path d="M141 40 H164 V56 H185 V40 H207 V56 H235" fill="none" stroke="#c19a50" stroke-width="3" stroke-linejoin="round" stroke-linecap="round"/><path d="M141 68 H164 V84 H185 V68 H207 V84 H235" fill="none" stroke="#c19a50" stroke-width="3" stroke-linejoin="round" stroke-linecap="round"/></g><g transform="translate(0 0)"><path d="M0 5 H256 M0 91 H256" fill="none" stroke="#c19a50" stroke-width="3" stroke-linejoin="round" stroke-linecap="round"/><path d="M13 12 H36 V28 H57 V12 H79 V28 H107" fill="none" stroke="#c19a50" stroke-width="3" stroke-linejoin="round" stroke-linecap="round"/><path d="M13 40 H36 V56 H57 V40 H79 V56 H107" fill="none" stroke="#c19a50" stroke-width="3" stroke-linejoin="round" stroke-linecap="round"/><path d="M13 68 H36 V84 H57 V68 H79 V84 H107" fill="none" stroke="#c19a50" stroke-width="3" stroke-linejoin="round" stroke-linecap="round"/><path d="M141 12 H164 V28 H185 V12 H207 V28 H235" fill="none" stroke="#c19a50" stroke-width="3" stroke-linejoin="round" stroke-linecap="round"/><path d="M141 40 H164 V56 H185 V40 H207 V56 H235" fill="none" stroke="#c19a50" stroke-width="3" stroke-linejoin="round" stroke-linecap="round"/><path d="M141 68 H164 V84 H185 V68 H207 V84 H235" fill="none" stroke="#c19a50" stroke-width="3" stroke-linejoin="round" stroke-linecap="round"/></g><g transform="translate(256 0)"><path d="M0 5 H256 M0 91 H256" fill="none" stroke="#c19a50" stroke-width="3" stroke-linejoin="round" stroke-linecap="round"/><path d="M13 12 H36 V28 H57 V12 H79 V28 H107" fill="none" stroke="#c19a50" stroke-width="3" stroke-linejoin="round" stroke-linecap="round"/><path d="M13 40 H36 V56 H57 V40 H79 V56 H107" fill="none" stroke="#c19a50" stroke-width="3" stroke-linejoin="round" stroke-linecap="round"/><path d="M13 68 H36 V84 H57 V68 H79 V84 H107" fill="none" stroke="#c19a50" stroke-width="3" stroke-linejoin="round" stroke-linecap="round"/><path d="M141 12 H164 V28 H185 V12 H207 V28 H235" fill="none" stroke="#c19a50" stroke-width="3" stroke-linejoin="round" stroke-linecap="round"/><path d="M141 40 H164 V56 H185 V40 H207 V56 H235" fill="none" stroke="#c19a50" stroke-width="3" stroke-linejoin="round" stroke-linecap="round"/><path d="M141 68 H164 V84 H185 V68 H207 V84 H235" fill="none" stroke="#c19a50" stroke-width="3" stroke-linejoin="round" stroke-linecap="round"/></g></svg></g></svg>
