<svg xmlns="http://www.w3.org/2000/svg" width="448" height="448" viewBox="0 0 448 448"><title>plate-38-diagonal-meander nine-slice border</title><path d="M0 0 H448 V448 H0Z M96 96 V352 H352 V96Z" fill="#943e2e" stroke="none" stroke-width="1" stroke-linejoin="round" stroke-linecap="round"/><g transform="translate(0 0)"><path d="M48 19 L77 48 L48 77 L19 48Z" fill="#285574" stroke="#eee3bc" stroke-width="3" stroke-linejoin="round" stroke-linecap="round"/><path d="M43.1 34 H52.9 V43.1 H62 V52.9 H52.9 V62 H43.1 V52.9 H34 V43.1 H43.1Z" fill="#943e2e" stroke="#eee3bc" stroke-width="2" stroke-linejoin="round" stroke-linecap="round"/></g><g transform="translate(448 0) rotate(90)"><path d="M48 19 L77 48 L48 77 L19 48Z" fill="#285574" stroke="#eee3bc" stroke-width="3" stroke-linejoin="round" stroke-linecap="round"/><path d="M43.1 34 H52.9 V43.1 H62 V52.9 H52.9 V62 H43.1 V52.9 H34 V43.1 H43.1Z" fill="#943e2e" stroke="#eee3bc" stroke-width="2" stroke-linejoin="round" stroke-linecap="round"/></g><g transform="translate(448 448) rotate(180)"><path d="M48 19 L77 48 L48 77 L19 48Z" fill="#285574" stroke="#eee3bc" stroke-width="3" stroke-linejoin="round" stroke-linecap="round"/><path d="M43.1 34 H52.9 V43.1 H62 V52.9 H52.9 V62 H43.1 V52.9 H34 V43.1 H43.1Z" fill="#943e2e" stroke="#eee3bc" stroke-width="2" stroke-linejoin="round" stroke-linecap="round"/></g><g transform="translate(0 448) rotate(270)"><path d="M48 19 L77 48 L48 77 L19 48Z" fill="#285574" stroke="#eee3bc" stroke-width="3" stroke-linejoin="round" stroke-linecap="round"/><path d="M43.1 34 H52.9 V43.1 H62 V52.9 H52.9 V62 H43.1 V52.9 H34 V43.1 H43.1Z" fill="#943e2e" stroke="#eee3bc" stroke-width="2" stroke-linejoin="round" stroke-linecap="round"/></g><g transform="translate(96 0)"><svg width="256" height="96" viewBox="0 0 256 96" overflow="hidden"><g transform="translate(-256 0)"><path d="M3 19.5 H58 V76.5 H3Z M3 19.5 L58 76.5" fill="none" stroke="#c19a50" stroke-width="1.7" stroke-linejoin="round" stroke-linecap="round"/><path d="M11 23.5 H50 V72.5 H11Z M11 23.5 L50 72.5" fill="none" stroke="#c19a50" stroke-width="1.7" stroke-linejoin="round" stroke-linecap="round"/><path d="M19 27.5 H42 V68.5 H19Z M19 27.5 L42 68.5" fill="none" stroke="#c19a50" stroke-width="1.7" stroke-linejoin="round" stroke-linecap="round"/><path d="M67 19.5 H122 V76.5 H67Z M67 19.5 L122 76.5" fill="none" stroke="#c19a50" stroke-width="1.7" stroke-linejoin="round" stroke-linecap="round"/><path d="M75 23.5 H114 V72.5 H75Z M75 23.5 L114 72.5" fill="none" stroke="#c19a50" stroke-width="1.7" stroke-linejoin="round" stroke-linecap="round"/><path d="M83 27.5 H106 V68.5 H83Z M83 27.5 L106 68.5" fill="none" stroke="#c19a50" stroke-width="1.7" stroke-linejoin="round" stroke-linecap="round"/><path d="M131 19.5 H186 V76.5 H131Z M131 19.5 L186 76.5" fill="none" stroke="#c19a50" stroke-width="1.7" stroke-linejoin="round" stroke-linecap="round"/><path d="M139 23.5 H178 V72.5 H139Z M139 23.5 L178 72.5" fill="none" stroke="#c19a50" stroke-width="1.7" stroke-linejoin="round" stroke-linecap="round"/><path d="M147 27.5 H170 V68.5 H147Z M147 27.5 L170 68.5" fill="none" stroke="#c19a50" stroke-width="1.7" stroke-linejoin="round" stroke-linecap="round"/><path d="M195 19.5 H250 V76.5 H195Z M195 19.5 L250 76.5" fill="none" stroke="#c19a50" stroke-width="1.7" stroke-linejoin="round" stroke-linecap="round"/><path d="M203 23.5 H242 V72.5 H203Z M203 23.5 L242 72.5" fill="none" stroke="#c19a50" stroke-width="1.7" stroke-linejoin="round" stroke-linecap="round"/><path d="M211 27.5 H234 V68.5 H211Z M211 27.5 L234 68.5" fill="none" stroke="#c19a50" stroke-width="1.7" stroke-linejoin="round" stroke-linecap="round"/></g><g transform="translate(0 0)"><path d="M3 19.5 H58 V76.5 H3Z M3 19.5 L58 76.5" fill="none" stroke="#c19a50" stroke-width="1.7" stroke-linejoin="round" stroke-linecap="round"/><path d="M11 23.5 H50 V72.5 H11Z M11 23.5 L50 72.5" fill="none" stroke="#c19a50" stroke-width="1.7" stroke-linejoin="round" stroke-linecap="round"/><path d="M19 27.5 H42 V68.5 H19Z M19 27.5 L42 68.5" fill="none" stroke="#c19a50" stroke-width="1.7" stroke-linejoin="round" stroke-linecap="round"/><path d="M67 19.5 H122 V76.5 H67Z M67 19.5 L122 76.5" fill="none" stroke="#c19a50" stroke-width="1.7" stroke-linejoin="round" stroke-linecap="round"/><path d="M75 23.5 H114 V72.5 H75Z M75 23.5 L114 72.5" fill="none" stroke="#c19a50" stroke-width="1.7" stroke-linejoin="round" stroke-linecap="round"/><path d="M83 27.5 H106 V68.5 H83Z M83 27.5 L106 68.5" fill="none" stroke="#c19a50" stroke-width="1.7" stroke-linejoin="round" stroke-linecap="round"/><path d="M131 19.5 H186 V76.5 H131Z M131 19.5 L186 76.5" fill="none" stroke="#c19a50" stroke-width="1.7" stroke-linejoin="round" stroke-linecap="round"/><path d="M139 23.5 H178 V72.5 H139Z M139 23.5 L178 72.5" fill="none" stroke="#c19a50" stroke-width="1.7" stroke-linejoin="round" stroke-linecap="round"/><path d="M147 27.5 H170 V68.5 H147Z M147 27.5 L170 68.5" fill="none" stroke="#c19a50" stroke-width="1.7" stroke-linejoin="round" stroke-linecap="round"/><path d="M195 19.5 H250 V76.5 H195Z M195 19.5 L250 76.5" fill="none" stroke="#c19a50" stroke-width="1.7" stroke-linejoin="round" stroke-linecap="round"/><path d="M203 23.5 H242 V72.5 H203Z M203 23.5 L242 72.5" fill="none" stroke="#c19a50" stroke-width="1.7" stroke-linejoin="round" stroke-linecap="round"/><path d="M211 27.5 H234 V68.5 H211Z M211 27.5 L234 68.5" fill="none" stroke="#c19a50" stroke-width="1.7" stroke-linejoin="round" stroke-linecap="round"/></g><g transform="translate(256 0)"><path d="M3 19.5 H58 V76.5 H3Z M3 19.5 L58 76.5" fill="none" stroke="#c19a50" stroke-width="1.7" stroke-linejoin="round" stroke-linecap="round"/><path d="M11 23.5 H50 V72.5 H11Z M11 23.5 L50 72.5" fill="none" stroke="#c19a50" stroke-width="1.7" stroke-linejoin="round" stroke-linecap="round"/><path d="M19 27.5 H42 V68.5 H19Z M19 27.5 L42 68.5" fill="none" stroke="#c19a50" stroke-width="1.7" stroke-linejoin="round" stroke-linecap="round"/><path d="M67 19.5 H122 V76.5 H67Z M67 19.5 L122 76.5" fill="none" stroke="#c19a50" stroke-width="1.7" stroke-linejoin="round" stroke-linecap="round"/><path d="M75 23.5 H114 V72.5 H75Z M75 23.5 L114 72.5" fill="none" stroke="#c19a50" stroke-width="1.7" stroke-linejoin="round" stroke-linecap="round"/><path d="M83 27.5 H106 V68.5 H83Z M83 27.5 L106 68.5" fill="none" stroke="#c19a50" stroke-width="1.7" stroke-linejoin="round" stroke-linecap="round"/><path d="M131 19.5 H186 V76.5 H131Z M131 19.5 L186 76.5" fill="none" stroke="#c19a50" stroke-width="1.7" stroke-linejoin="round" stroke-linecap="round"/><path d="M139 23.5 H178 V72.5 H139Z M139 23.5 L178 72.5" fill="none" stroke="#c19a50" stroke-width="1.7" stroke-linejoin="round" stroke-linecap="round"/><path d="M147 27.5 H170 V68.5 H147Z M147 27.5 L170 68.5" fill="none" stroke="#c19a50" stroke-width="1.7" stroke-linejoin="round" stroke-linecap="round"/><path d="M195 19.5 H250 V76.5 H195Z M195 19.5 L250 76.5" fill="none" stroke="#c19a50" stroke-width="1.7" stroke-linejoin="round" stroke-linecap="round"/><path d="M203 23.5 H242 V72.5 H203Z M203 23.5 L242 72.5" fill="none" stroke="#c19a50" stroke-width="1.7" stroke-linejoin="round" stroke-linecap="round"/><path d="M211 27.5 H234 V68.5 H211Z M211 27.5 L234 68.5" fill="none" stroke="#c19a50" stroke-width="1.7" stroke-linejoin="round" stroke-linecap="round"/></g></svg></g><g transform="translate(448 96) rotate(90)"><svg width="256" height="96" viewBox="0 0 256 96" overflow="hidden"><g transform="translate(-256 0)"><path d="M3 19.5 H58 V76.5 H3Z M3 19.5 L58 76.5" fill="none" stroke="#c19a50" stroke-width="1.7" stroke-linejoin="round" stroke-linecap="round"/><path d="M11 23.5 H50 V72.5 H11Z M11 23.5 L50 72.5" fill="none" stroke="#c19a50" stroke-width="1.7" stroke-linejoin="round" stroke-linecap="round"/><path d="M19 27.5 H42 V68.5 H19Z M19 27.5 L42 68.5" fill="none" stroke="#c19a50" stroke-width="1.7" stroke-linejoin="round" stroke-linecap="round"/><path d="M67 19.5 H122 V76.5 H67Z M67 19.5 L122 76.5" fill="none" stroke="#c19a50" stroke-width="1.7" stroke-linejoin="round" stroke-linecap="round"/><path d="M75 23.5 H114 V72.5 H75Z M75 23.5 L114 72.5" fill="none" stroke="#c19a50" stroke-width="1.7" stroke-linejoin="round" stroke-linecap="round"/><path d="M83 27.5 H106 V68.5 H83Z M83 27.5 L106 68.5" fill="none" stroke="#c19a50" stroke-width="1.7" stroke-linejoin="round" stroke-linecap="round"/><path d="M131 19.5 H186 V76.5 H131Z M131 19.5 L186 76.5" fill="none" stroke="#c19a50" stroke-width="1.7" stroke-linejoin="round" stroke-linecap="round"/><path d="M139 23.5 H178 V72.5 H139Z M139 23.5 L178 72.5" fill="none" stroke="#c19a50" stroke-width="1.7" stroke-linejoin="round" stroke-linecap="round"/><path d="M147 27.5 H170 V68.5 H147Z M147 27.5 L170 68.5" fill="none" stroke="#c19a50" stroke-width="1.7" stroke-linejoin="round" stroke-linecap="round"/><path d="M195 19.5 H250 V76.5 H195Z M195 19.5 L250 76.5" fill="none" stroke="#c19a50" stroke-width="1.7" stroke-linejoin="round" stroke-linecap="round"/><path d="M203 23.5 H242 V72.5 H203Z M203 23.5 L242 72.5" fill="none" stroke="#c19a50" stroke-width="1.7" stroke-linejoin="round" stroke-linecap="round"/><path d="M211 27.5 H234 V68.5 H211Z M211 27.5 L234 68.5" fill="none" stroke="#c19a50" stroke-width="1.7" stroke-linejoin="round" stroke-linecap="round"/></g><g transform="translate(0 0)"><path d="M3 19.5 H58 V76.5 H3Z M3 19.5 L58 76.5" fill="none" stroke="#c19a50" stroke-width="1.7" stroke-linejoin="round" stroke-linecap="round"/><path d="M11 23.5 H50 V72.5 H11Z M11 23.5 L50 72.5" fill="none" stroke="#c19a50" stroke-width="1.7" stroke-linejoin="round" stroke-linecap="round"/><path d="M19 27.5 H42 V68.5 H19Z M19 27.5 L42 68.5" fill="none" stroke="#c19a50" stroke-width="1.7" stroke-linejoin="round" stroke-linecap="round"/><path d="M67 19.5 H122 V76.5 H67Z M67 19.5 L122 76.5" fill="none" stroke="#c19a50" stroke-width="1.7" stroke-linejoin="round" stroke-linecap="round"/><path d="M75 23.5 H114 V72.5 H75Z M75 23.5 L114 72.5" fill="none" stroke="#c19a50" stroke-width="1.7" stroke-linejoin="round" stroke-linecap="round"/><path d="M83 27.5 H106 V68.5 H83Z M83 27.5 L106 68.5" fill="none" stroke="#c19a50" stroke-width="1.7" stroke-linejoin="round" stroke-linecap="round"/><path d="M131 19.5 H186 V76.5 H131Z M131 19.5 L186 76.5" fill="none" stroke="#c19a50" stroke-width="1.7" stroke-linejoin="round" stroke-linecap="round"/><path d="M139 23.5 H178 V72.5 H139Z M139 23.5 L178 72.5" fill="none" stroke="#c19a50" stroke-width="1.7" stroke-linejoin="round" stroke-linecap="round"/><path d="M147 27.5 H170 V68.5 H147Z M147 27.5 L170 68.5" fill="none" stroke="#c19a50" stroke-width="1.7" stroke-linejoin="round" stroke-linecap="round"/><path d="M195 19.5 H250 V76.5 H195Z M195 19.5 L250 76.5" fill="none" stroke="#c19a50" stroke-width="1.7" stroke-linejoin="round" stroke-linecap="round"/><path d="M203 23.5 H242 V72.5 H203Z M203 23.5 L242 72.5" fill="none" stroke="#c19a50" stroke-width="1.7" stroke-linejoin="round" stroke-linecap="round"/><path d="M211 27.5 H234 V68.5 H211Z M211 27.5 L234 68.5" fill="none" stroke="#c19a50" stroke-width="1.7" stroke-linejoin="round" stroke-linecap="round"/></g><g transform="translate(256 0)"><path d="M3 19.5 H58 V76.5 H3Z M3 19.5 L58 76.5" fill="none" stroke="#c19a50" stroke-width="1.7" stroke-linejoin="round" stroke-linecap="round"/><path d="M11 23.5 H50 V72.5 H11Z M11 23.5 L50 72.5" fill="none" stroke="#c19a50" stroke-width="1.7" stroke-linejoin="round" stroke-linecap="round"/><path d="M19 27.5 H42 V68.5 H19Z M19 27.5 L42 68.5" fill="none" stroke="#c19a50" stroke-width="1.7" stroke-linejoin="round" stroke-linecap="round"/><path d="M67 19.5 H122 V76.5 H67Z M67 19.5 L122 76.5" fill="none" stroke="#c19a50" stroke-width="1.7" stroke-linejoin="round" stroke-linecap="round"/><path d="M75 23.5 H114 V72.5 H75Z M75 23.5 L114 72.5" fill="none" stroke="#c19a50" stroke-width="1.7" stroke-linejoin="round" stroke-linecap="round"/><path d="M83 27.5 H106 V68.5 H83Z M83 27.5 L106 68.5" fill="none" stroke="#c19a50" stroke-width="1.7" stroke-linejoin="round" stroke-linecap="round"/><path d="M131 19.5 H186 V76.5 H131Z M131 19.5 L186 76.5" fill="none" stroke="#c19a50" stroke-width="1.7" stroke-linejoin="round" stroke-linecap="round"/><path d="M139 23.5 H178 V72.5 H139Z M139 23.5 L178 72.5" fill="none" stroke="#c19a50" stroke-width="1.7" stroke-linejoin="round" stroke-linecap="round"/><path d="M147 27.5 H170 V68.5 H147Z M147 27.5 L170 68.5" fill="none" stroke="#c19a50" stroke-width="1.7" stroke-linejoin="round" stroke-linecap="round"/><path d="M195 19.5 H250 V76.5 H195Z M195 19.5 L250 76.5" fill="none" stroke="#c19a50" stroke-width="1.7" stroke-linejoin="round" stroke-linecap="round"/><path d="M203 23.5 H242 V72.5 H203Z M203 23.5 L242 72.5" fill="none" stroke="#c19a50" stroke-width="1.7" stroke-linejoin="round" stroke-linecap="round"/><path d="M211 27.5 H234 V68.5 H211Z M211 27.5 L234 68.5" fill="none" stroke="#c19a50" stroke-width="1.7" stroke-linejoin="round" stroke-linecap="round"/></g></svg></g><g transform="translate(352 448) rotate(180)"><svg width="256" height="96" viewBox="0 0 256 96" overflow="hidden"><g transform="translate(-256 0)"><path d="M3 19.5 H58 V76.5 H3Z M3 19.5 L58 76.5" fill="none" stroke="#c19a50" stroke-width="1.7" stroke-linejoin="round" stroke-linecap="round"/><path d="M11 23.5 H50 V72.5 H11Z M11 23.5 L50 72.5" fill="none" stroke="#c19a50" stroke-width="1.7" stroke-linejoin="round" stroke-linecap="round"/><path d="M19 27.5 H42 V68.5 H19Z M19 27.5 L42 68.5" fill="none" stroke="#c19a50" stroke-width="1.7" stroke-linejoin="round" stroke-linecap="round"/><path d="M67 19.5 H122 V76.5 H67Z M67 19.5 L122 76.5" fill="none" stroke="#c19a50" stroke-width="1.7" stroke-linejoin="round" stroke-linecap="round"/><path d="M75 23.5 H114 V72.5 H75Z M75 23.5 L114 72.5" fill="none" stroke="#c19a50" stroke-width="1.7" stroke-linejoin="round" stroke-linecap="round"/><path d="M83 27.5 H106 V68.5 H83Z M83 27.5 L106 68.5" fill="none" stroke="#c19a50" stroke-width="1.7" stroke-linejoin="round" stroke-linecap="round"/><path d="M131 19.5 H186 V76.5 H131Z M131 19.5 L186 76.5" fill="none" stroke="#c19a50" stroke-width="1.7" stroke-linejoin="round" stroke-linecap="round"/><path d="M139 23.5 H178 V72.5 H139Z M139 23.5 L178 72.5" fill="none" stroke="#c19a50" stroke-width="1.7" stroke-linejoin="round" stroke-linecap="round"/><path d="M147 27.5 H170 V68.5 H147Z M147 27.5 L170 68.5" fill="none" stroke="#c19a50" stroke-width="1.7" stroke-linejoin="round" stroke-linecap="round"/><path d="M195 19.5 H250 V76.5 H195Z M195 19.5 L250 76.5" fill="none" stroke="#c19a50" stroke-width="1.7" stroke-linejoin="round" stroke-linecap="round"/><path d="M203 23.5 H242 V72.5 H203Z M203 23.5 L242 72.5" fill="none" stroke="#c19a50" stroke-width="1.7" stroke-linejoin="round" stroke-linecap="round"/><path d="M211 27.5 H234 V68.5 H211Z M211 27.5 L234 68.5" fill="none" stroke="#c19a50" stroke-width="1.7" stroke-linejoin="round" stroke-linecap="round"/></g><g transform="translate(0 0)"><path d="M3 19.5 H58 V76.5 H3Z M3 19.5 L58 76.5" fill="none" stroke="#c19a50" stroke-width="1.7" stroke-linejoin="round" stroke-linecap="round"/><path d="M11 23.5 H50 V72.5 H11Z M11 23.5 L50 72.5" fill="none" stroke="#c19a50" stroke-width="1.7" stroke-linejoin="round" stroke-linecap="round"/><path d="M19 27.5 H42 V68.5 H19Z M19 27.5 L42 68.5" fill="none" stroke="#c19a50" stroke-width="1.7" stroke-linejoin="round" stroke-linecap="round"/><path d="M67 19.5 H122 V76.5 H67Z M67 19.5 L122 76.5" fill="none" stroke="#c19a50" stroke-width="1.7" stroke-linejoin="round" stroke-linecap="round"/><path d="M75 23.5 H114 V72.5 H75Z M75 23.5 L114 72.5" fill="none" stroke="#c19a50" stroke-width="1.7" stroke-linejoin="round" stroke-linecap="round"/><path d="M83 27.5 H106 V68.5 H83Z M83 27.5 L106 68.5" fill="none" stroke="#c19a50" stroke-width="1.7" stroke-linejoin="round" stroke-linecap="round"/><path d="M131 19.5 H186 V76.5 H131Z M131 19.5 L186 76.5" fill="none" stroke="#c19a50" stroke-width="1.7" stroke-linejoin="round" stroke-linecap="round"/><path d="M139 23.5 H178 V72.5 H139Z M139 23.5 L178 72.5" fill="none" stroke="#c19a50" stroke-width="1.7" stroke-linejoin="round" stroke-linecap="round"/><path d="M147 27.5 H170 V68.5 H147Z M147 27.5 L170 68.5" fill="none" stroke="#c19a50" stroke-width="1.7" stroke-linejoin="round" stroke-linecap="round"/><path d="M195 19.5 H250 V76.5 H195Z M195 19.5 L250 76.5" fill="none" stroke="#c19a50" stroke-width="1.7" stroke-linejoin="round" stroke-linecap="round"/><path d="M203 23.5 H242 V72.5 H203Z M203 23.5 L242 72.5" fill="none" stroke="#c19a50" stroke-width="1.7" stroke-linejoin="round" stroke-linecap="round"/><path d="M211 27.5 H234 V68.5 H211Z M211 27.5 L234 68.5" fill="none" stroke="#c19a50" stroke-width="1.7" stroke-linejoin="round" stroke-linecap="round"/></g><g transform="translate(256 0)"><path d="M3 19.5 H58 V76.5 H3Z M3 19.5 L58 76.5" fill="none" stroke="#c19a50" stroke-width="1.7" stroke-linejoin="round" stroke-linecap="round"/><path d="M11 23.5 H50 V72.5 H11Z M11 23.5 L50 72.5" fill="none" stroke="#c19a50" stroke-width="1.7" stroke-linejoin="round" stroke-linecap="round"/><path d="M19 27.5 H42 V68.5 H19Z M19 27.5 L42 68.5" fill="none" stroke="#c19a50" stroke-width="1.7" stroke-linejoin="round" stroke-linecap="round"/><path d="M67 19.5 H122 V76.5 H67Z M67 19.5 L122 76.5" fill="none" stroke="#c19a50" stroke-width="1.7" stroke-linejoin="round" stroke-linecap="round"/><path d="M75 23.5 H114 V72.5 H75Z M75 23.5 L114 72.5" fill="none" stroke="#c19a50" stroke-width="1.7" stroke-linejoin="round" stroke-linecap="round"/><path d="M83 27.5 H106 V68.5 H83Z M83 27.5 L106 68.5" fill="none" stroke="#c19a50" stroke-width="1.7" stroke-linejoin="round" stroke-linecap="round"/><path d="M131 19.5 H186 V76.5 H131Z M131 19.5 L186 76.5" fill="none" stroke="#c19a50" stroke-width="1.7" stroke-linejoin="round" stroke-linecap="round"/><path d="M139 23.5 H178 V72.5 H139Z M139 23.5 L178 72.5" fill="none" stroke="#c19a50" stroke-width="1.7" stroke-linejoin="round" stroke-linecap="round"/><path d="M147 27.5 H170 V68.5 H147Z M147 27.5 L170 68.5" fill="none" stroke="#c19a50" stroke-width="1.7" stroke-linejoin="round" stroke-linecap="round"/><path d="M195 19.5 H250 V76.5 H195Z M195 19.5 L250 76.5" fill="none" stroke="#c19a50" stroke-width="1.7" stroke-linejoin="round" stroke-linecap="round"/><path d="M203 23.5 H242 V72.5 H203Z M203 23.5 L242 72.5" fill="none" stroke="#c19a50" stroke-width="1.7" stroke-linejoin="round" stroke-linecap="round"/><path d="M211 27.5 H234 V68.5 H211Z M211 27.5 L234 68.5" fill="none" stroke="#c19a50" stroke-width="1.7" stroke-linejoin="round" stroke-linecap="round"/></g></svg></g><g transform="translate(0 352) rotate(270)"><svg width="256" height="96" viewBox="0 0 256 96" overflow="hidden"><g transform="translate(-256 0)"><path d="M3 19.5 H58 V76.5 H3Z M3 19.5 L58 76.5" fill="none" stroke="#c19a50" stroke-width="1.7" stroke-linejoin="round" stroke-linecap="round"/><path d="M11 23.5 H50 V72.5 H11Z M11 23.5 L50 72.5" fill="none" stroke="#c19a50" stroke-width="1.7" stroke-linejoin="round" stroke-linecap="round"/><path d="M19 27.5 H42 V68.5 H19Z M19 27.5 L42 68.5" fill="none" stroke="#c19a50" stroke-width="1.7" stroke-linejoin="round" stroke-linecap="round"/><path d="M67 19.5 H122 V76.5 H67Z M67 19.5 L122 76.5" fill="none" stroke="#c19a50" stroke-width="1.7" stroke-linejoin="round" stroke-linecap="round"/><path d="M75 23.5 H114 V72.5 H75Z M75 23.5 L114 72.5" fill="none" stroke="#c19a50" stroke-width="1.7" stroke-linejoin="round" stroke-linecap="round"/><path d="M83 27.5 H106 V68.5 H83Z M83 27.5 L106 68.5" fill="none" stroke="#c19a50" stroke-width="1.7" stroke-linejoin="round" stroke-linecap="round"/><path d="M131 19.5 H186 V76.5 H131Z M131 19.5 L186 76.5" fill="none" stroke="#c19a50" stroke-width="1.7" stroke-linejoin="round" stroke-linecap="round"/><path d="M139 23.5 H178 V72.5 H139Z M139 23.5 L178 72.5" fill="none" stroke="#c19a50" stroke-width="1.7" stroke-linejoin="round" stroke-linecap="round"/><path d="M147 27.5 H170 V68.5 H147Z M147 27.5 L170 68.5" fill="none" stroke="#c19a50" stroke-width="1.7" stroke-linejoin="round" stroke-linecap="round"/><path d="M195 19.5 H250 V76.5 H195Z M195 19.5 L250 76.5" fill="none" stroke="#c19a50" stroke-width="1.7" stroke-linejoin="round" stroke-linecap="round"/><path d="M203 23.5 H242 V72.5 H203Z M203 23.5 L242 72.5" fill="none" stroke="#c19a50" stroke-width="1.7" stroke-linejoin="round" stroke-linecap="round"/><path d="M211 27.5 H234 V68.5 H211Z M211 27.5 L234 68.5" fill="none" stroke="#c19a50" stroke-width="1.7" stroke-linejoin="round" stroke-linecap="round"/></g><g transform="translate(0 0)"><path d="M3 19.5 H58 V76.5 H3Z M3 19.5 L58 76.5" fill="none" stroke="#c19a50" stroke-width="1.7" stroke-linejoin="round" stroke-linecap="round"/><path d="M11 23.5 H50 V72.5 H11Z M11 23.5 L50 72.5" fill="none" stroke="#c19a50" stroke-width="1.7" stroke-linejoin="round" stroke-linecap="round"/><path d="M19 27.5 H42 V68.5 H19Z M19 27.5 L42 68.5" fill="none" stroke="#c19a50" stroke-width="1.7" stroke-linejoin="round" stroke-linecap="round"/><path d="M67 19.5 H122 V76.5 H67Z M67 19.5 L122 76.5" fill="none" stroke="#c19a50" stroke-width="1.7" stroke-linejoin="round" stroke-linecap="round"/><path d="M75 23.5 H114 V72.5 H75Z M75 23.5 L114 72.5" fill="none" stroke="#c19a50" stroke-width="1.7" stroke-linejoin="round" stroke-linecap="round"/><path d="M83 27.5 H106 V68.5 H83Z M83 27.5 L106 68.5" fill="none" stroke="#c19a50" stroke-width="1.7" stroke-linejoin="round" stroke-linecap="round"/><path d="M131 19.5 H186 V76.5 H131Z M131 19.5 L186 76.5" fill="none" stroke="#c19a50" stroke-width="1.7" stroke-linejoin="round" stroke-linecap="round"/><path d="M139 23.5 H178 V72.5 H139Z M139 23.5 L178 72.5" fill="none" stroke="#c19a50" stroke-width="1.7" stroke-linejoin="round" stroke-linecap="round"/><path d="M147 27.5 H170 V68.5 H147Z M147 27.5 L170 68.5" fill="none" stroke="#c19a50" stroke-width="1.7" stroke-linejoin="round" stroke-linecap="round"/><path d="M195 19.5 H250 V76.5 H195Z M195 19.5 L250 76.5" fill="none" stroke="#c19a50" stroke-width="1.7" stroke-linejoin="round" stroke-linecap="round"/><path d="M203 23.5 H242 V72.5 H203Z M203 23.5 L242 72.5" fill="none" stroke="#c19a50" stroke-width="1.7" stroke-linejoin="round" stroke-linecap="round"/><path d="M211 27.5 H234 V68.5 H211Z M211 27.5 L234 68.5" fill="none" stroke="#c19a50" stroke-width="1.7" stroke-linejoin="round" stroke-linecap="round"/></g><g transform="translate(256 0)"><path d="M3 19.5 H58 V76.5 H3Z M3 19.5 L58 76.5" fill="none" stroke="#c19a50" stroke-width="1.7" stroke-linejoin="round" stroke-linecap="round"/><path d="M11 23.5 H50 V72.5 H11Z M11 23.5 L50 72.5" fill="none" stroke="#c19a50" stroke-width="1.7" stroke-linejoin="round" stroke-linecap="round"/><path d="M19 27.5 H42 V68.5 H19Z M19 27.5 L42 68.5" fill="none" stroke="#c19a50" stroke-width="1.7" stroke-linejoin="round" stroke-linecap="round"/><path d="M67 19.5 H122 V76.5 H67Z M67 19.5 L122 76.5" fill="none" stroke="#c19a50" stroke-width="1.7" stroke-linejoin="round" stroke-linecap="round"/><path d="M75 23.5 H114 V72.5 H75Z M75 23.5 L114 72.5" fill="none" stroke="#c19a50" stroke-width="1.7" stroke-linejoin="round" stroke-linecap="round"/><path d="M83 27.5 H106 V68.5 H83Z M83 27.5 L106 68.5" fill="none" stroke="#c19a50" stroke-width="1.7" stroke-linejoin="round" stroke-linecap="round"/><path d="M131 19.5 H186 V76.5 H131Z M131 19.5 L186 76.5" fill="none" stroke="#c19a50" stroke-width="1.7" stroke-linejoin="round" stroke-linecap="round"/><path d="M139 23.5 H178 V72.5 H139Z M139 23.5 L178 72.5" fill="none" stroke="#c19a50" stroke-width="1.7" stroke-linejoin="round" stroke-linecap="round"/><path d="M147 27.5 H170 V68.5 H147Z M147 27.5 L170 68.5" fill="none" stroke="#c19a50" stroke-width="1.7" stroke-linejoin="round" stroke-linecap="round"/><path d="M195 19.5 H250 V76.5 H195Z M195 19.5 L250 76.5" fill="none" stroke="#c19a50" stroke-width="1.7" stroke-linejoin="round" stroke-linecap="round"/><path d="M203 23.5 H242 V72.5 H203Z M203 23.5 L242 72.5" fill="none" stroke="#c19a50" stroke-width="1.7" stroke-linejoin="round" stroke-linecap="round"/><path d="M211 27.5 H234 V68.5 H211Z M211 27.5 L234 68.5" fill="none" stroke="#c19a50" stroke-width="1.7" stroke-linejoin="round" stroke-linecap="round"/></g></svg></g><path d="M5 5 H443 V443 H5Z M91 91 H357 V357 H91Z" fill="none" stroke="#c19a50" stroke-width="3" stroke-linejoin="round" stroke-linecap="round"/></svg>
