<svg xmlns="http://www.w3.org/2000/svg" width="96" height="256" viewBox="0 0 96 256"><title>plate-18-fan-palmettes</title><g transform="translate(96 0) rotate(90)"><svg width="256" height="96" viewBox="0 0 256 96" overflow="hidden"><rect x="0" y="0" width="256" height="96" fill="#943e2e" stroke="none" stroke-width="1"/><g transform="translate(-256 0)"><path d="M0 5 H256 M0 91 H256" fill="none" stroke="#c19a50" stroke-width="3" stroke-linejoin="round" stroke-linecap="round"/><g transform="translate(64 82)"><g transform="translate(0 0) rotate(-65)"><path d="M0 0 C-19.802631578947366 -8.486842105263158 -15.559210526315791 -28.289473684210527 0 -42.434210526315795 C5.657894736842106 -14.144736842105264 18.388157894736842 -5.657894736842106 0 0Z" fill="#285574" stroke="#493523" stroke-width="1.8" stroke-linejoin="round" stroke-linecap="round"/><path d="M0 0 Q-5.092105263157895 -16.973684210526315 0 -36.776315789473685" fill="none" stroke="#eee3bc" stroke-width="1" stroke-linejoin="round" stroke-linecap="round"/></g><g transform="translate(0 0) rotate(-42)"><path d="M0 0 C-23.446315789473683 -10.048421052631578 -18.422105263157896 -33.49473684210526 0 -50.242105263157896 C6.698947368421052 -16.74736842105263 21.771578947368422 -6.698947368421052 0 0Z" fill="#285574" stroke="#493523" stroke-width="1.8" stroke-linejoin="round" stroke-linecap="round"/><path d="M0 0 Q-6.0290526315789466 -20.096842105263157 0 -43.543157894736844" fill="none" stroke="#eee3bc" stroke-width="1" stroke-linejoin="round" stroke-linecap="round"/></g><g transform="translate(0 0) rotate(-20)"><path d="M0 0 C-26.93157894736842 -11.542105263157895 -21.160526315789475 -38.473684210526315 0 -57.71052631578947 C7.6947368421052635 -19.236842105263158 25.007894736842104 -7.6947368421052635 0 0Z" fill="#496341" stroke="#493523" stroke-width="1.8" stroke-linejoin="round" stroke-linecap="round"/><path d="M0 0 Q-6.925263157894737 -23.08421052631579 0 -50.01578947368421" fill="none" stroke="#eee3bc" stroke-width="1" stroke-linejoin="round" stroke-linecap="round"/></g><g transform="translate(0 0) rotate(0)"><path d="M0 0 C-30.099999999999998 -12.9 -23.650000000000002 -43.0 0 -64.5 C8.6 -21.5 27.95 -8.6 0 0Z" fill="#496341" stroke="#493523" stroke-width="1.8" stroke-linejoin="round" stroke-linecap="round"/><path d="M0 0 Q-7.739999999999999 -25.8 0 -55.9" fill="none" stroke="#eee3bc" stroke-width="1" stroke-linejoin="round" stroke-linecap="round"/></g><g transform="translate(0 0) rotate(20)"><path d="M0 0 C-26.93157894736842 -11.542105263157895 -21.160526315789475 -38.473684210526315 0 -57.71052631578947 C7.6947368421052635 -19.236842105263158 25.007894736842104 -7.6947368421052635 0 0Z" fill="#eee3bc" stroke="#493523" stroke-width="1.8" stroke-linejoin="round" stroke-linecap="round"/><path d="M0 0 Q-6.925263157894737 -23.08421052631579 0 -50.01578947368421" fill="none" stroke="#eee3bc" stroke-width="1" stroke-linejoin="round" stroke-linecap="round"/></g><g transform="translate(0 0) rotate(42)"><path d="M0 0 C-23.446315789473683 -10.048421052631578 -18.422105263157896 -33.49473684210526 0 -50.242105263157896 C6.698947368421052 -16.74736842105263 21.771578947368422 -6.698947368421052 0 0Z" fill="#eee3bc" stroke="#493523" stroke-width="1.8" stroke-linejoin="round" stroke-linecap="round"/><path d="M0 0 Q-6.0290526315789466 -20.096842105263157 0 -43.543157894736844" fill="none" stroke="#eee3bc" stroke-width="1" stroke-linejoin="round" stroke-linecap="round"/></g><g transform="translate(0 0) rotate(65)"><path d="M0 0 C-19.802631578947366 -8.486842105263158 -15.559210526315791 -28.289473684210527 0 -42.434210526315795 C5.657894736842106 -14.144736842105264 18.388157894736842 -5.657894736842106 0 0Z" fill="#c19a50" stroke="#493523" stroke-width="1.8" stroke-linejoin="round" stroke-linecap="round"/><path d="M0 0 Q-5.092105263157895 -16.973684210526315 0 -36.776315789473685" fill="none" stroke="#eee3bc" stroke-width="1" stroke-linejoin="round" stroke-linecap="round"/></g><path d="M0 0 V12" fill="none" stroke="#eee3bc" stroke-width="3" stroke-linejoin="round" stroke-linecap="round"/></g><g transform="translate(192 82)"><g transform="translate(0 0) rotate(-65)"><path d="M0 0 C-19.802631578947366 -8.486842105263158 -15.559210526315791 -28.289473684210527 0 -42.434210526315795 C5.657894736842106 -14.144736842105264 18.388157894736842 -5.657894736842106 0 0Z" fill="#285574" stroke="#493523" stroke-width="1.8" stroke-linejoin="round" stroke-linecap="round"/><path d="M0 0 Q-5.092105263157895 -16.973684210526315 0 -36.776315789473685" fill="none" stroke="#eee3bc" stroke-width="1" stroke-linejoin="round" stroke-linecap="round"/></g><g transform="translate(0 0) rotate(-42)"><path d="M0 0 C-23.446315789473683 -10.048421052631578 -18.422105263157896 -33.49473684210526 0 -50.242105263157896 C6.698947368421052 -16.74736842105263 21.771578947368422 -6.698947368421052 0 0Z" fill="#285574" stroke="#493523" stroke-width="1.8" stroke-linejoin="round" stroke-linecap="round"/><path d="M0 0 Q-6.0290526315789466 -20.096842105263157 0 -43.543157894736844" fill="none" stroke="#eee3bc" stroke-width="1" stroke-linejoin="round" stroke-linecap="round"/></g><g transform="translate(0 0) rotate(-20)"><path d="M0 0 C-26.93157894736842 -11.542105263157895 -21.160526315789475 -38.473684210526315 0 -57.71052631578947 C7.6947368421052635 -19.236842105263158 25.007894736842104 -7.6947368421052635 0 0Z" fill="#496341" stroke="#493523" stroke-width="1.8" stroke-linejoin="round" stroke-linecap="round"/><path d="M0 0 Q-6.925263157894737 -23.08421052631579 0 -50.01578947368421" fill="none" stroke="#eee3bc" stroke-width="1" stroke-linejoin="round" stroke-linecap="round"/></g><g transform="translate(0 0) rotate(0)"><path d="M0 0 C-30.099999999999998 -12.9 -23.650000000000002 -43.0 0 -64.5 C8.6 -21.5 27.95 -8.6 0 0Z" fill="#496341" stroke="#493523" stroke-width="1.8" stroke-linejoin="round" stroke-linecap="round"/><path d="M0 0 Q-7.739999999999999 -25.8 0 -55.9" fill="none" stroke="#eee3bc" stroke-width="1" stroke-linejoin="round" stroke-linecap="round"/></g><g transform="translate(0 0) rotate(20)"><path d="M0 0 C-26.93157894736842 -11.542105263157895 -21.160526315789475 -38.473684210526315 0 -57.71052631578947 C7.6947368421052635 -19.236842105263158 25.007894736842104 -7.6947368421052635 0 0Z" fill="#eee3bc" stroke="#493523" stroke-width="1.8" stroke-linejoin="round" stroke-linecap="round"/><path d="M0 0 Q-6.925263157894737 -23.08421052631579 0 -50.01578947368421" fill="none" stroke="#eee3bc" stroke-width="1" stroke-linejoin="round" stroke-linecap="round"/></g><g transform="translate(0 0) rotate(42)"><path d="M0 0 C-23.446315789473683 -10.048421052631578 -18.422105263157896 -33.49473684210526 0 -50.242105263157896 C6.698947368421052 -16.74736842105263 21.771578947368422 -6.698947368421052 0 0Z" fill="#eee3bc" stroke="#493523" stroke-width="1.8" stroke-linejoin="round" stroke-linecap="round"/><path d="M0 0 Q-6.0290526315789466 -20.096842105263157 0 -43.543157894736844" fill="none" stroke="#eee3bc" stroke-width="1" stroke-linejoin="round" stroke-linecap="round"/></g><g transform="translate(0 0) rotate(65)"><path d="M0 0 C-19.802631578947366 -8.486842105263158 -15.559210526315791 -28.289473684210527 0 -42.434210526315795 C5.657894736842106 -14.144736842105264 18.388157894736842 -5.657894736842106 0 0Z" fill="#c19a50" stroke="#493523" stroke-width="1.8" stroke-linejoin="round" stroke-linecap="round"/><path d="M0 0 Q-5.092105263157895 -16.973684210526315 0 -36.776315789473685" fill="none" stroke="#eee3bc" stroke-width="1" stroke-linejoin="round" stroke-linecap="round"/></g><path d="M0 0 V12" fill="none" stroke="#eee3bc" stroke-width="3" stroke-linejoin="round" stroke-linecap="round"/></g></g><g transform="translate(0 0)"><path d="M0 5 H256 M0 91 H256" fill="none" stroke="#c19a50" stroke-width="3" stroke-linejoin="round" stroke-linecap="round"/><g transform="translate(64 82)"><g transform="translate(0 0) rotate(-65)"><path d="M0 0 C-19.802631578947366 -8.486842105263158 -15.559210526315791 -28.289473684210527 0 -42.434210526315795 C5.657894736842106 -14.144736842105264 18.388157894736842 -5.657894736842106 0 0Z" fill="#285574" stroke="#493523" stroke-width="1.8" stroke-linejoin="round" stroke-linecap="round"/><path d="M0 0 Q-5.092105263157895 -16.973684210526315 0 -36.776315789473685" fill="none" stroke="#eee3bc" stroke-width="1" stroke-linejoin="round" stroke-linecap="round"/></g><g transform="translate(0 0) rotate(-42)"><path d="M0 0 C-23.446315789473683 -10.048421052631578 -18.422105263157896 -33.49473684210526 0 -50.242105263157896 C6.698947368421052 -16.74736842105263 21.771578947368422 -6.698947368421052 0 0Z" fill="#285574" stroke="#493523" stroke-width="1.8" stroke-linejoin="round" stroke-linecap="round"/><path d="M0 0 Q-6.0290526315789466 -20.096842105263157 0 -43.543157894736844" fill="none" stroke="#eee3bc" stroke-width="1" stroke-linejoin="round" stroke-linecap="round"/></g><g transform="translate(0 0) rotate(-20)"><path d="M0 0 C-26.93157894736842 -11.542105263157895 -21.160526315789475 -38.473684210526315 0 -57.71052631578947 C7.6947368421052635 -19.236842105263158 25.007894736842104 -7.6947368421052635 0 0Z" fill="#496341" stroke="#493523" stroke-width="1.8" stroke-linejoin="round" stroke-linecap="round"/><path d="M0 0 Q-6.925263157894737 -23.08421052631579 0 -50.01578947368421" fill="none" stroke="#eee3bc" stroke-width="1" stroke-linejoin="round" stroke-linecap="round"/></g><g transform="translate(0 0) rotate(0)"><path d="M0 0 C-30.099999999999998 -12.9 -23.650000000000002 -43.0 0 -64.5 C8.6 -21.5 27.95 -8.6 0 0Z" fill="#496341" stroke="#493523" stroke-width="1.8" stroke-linejoin="round" stroke-linecap="round"/><path d="M0 0 Q-7.739999999999999 -25.8 0 -55.9" fill="none" stroke="#eee3bc" stroke-width="1" stroke-linejoin="round" stroke-linecap="round"/></g><g transform="translate(0 0) rotate(20)"><path d="M0 0 C-26.93157894736842 -11.542105263157895 -21.160526315789475 -38.473684210526315 0 -57.71052631578947 C7.6947368421052635 -19.236842105263158 25.007894736842104 -7.6947368421052635 0 0Z" fill="#eee3bc" stroke="#493523" stroke-width="1.8" stroke-linejoin="round" stroke-linecap="round"/><path d="M0 0 Q-6.925263157894737 -23.08421052631579 0 -50.01578947368421" fill="none" stroke="#eee3bc" stroke-width="1" stroke-linejoin="round" stroke-linecap="round"/></g><g transform="translate(0 0) rotate(42)"><path d="M0 0 C-23.446315789473683 -10.048421052631578 -18.422105263157896 -33.49473684210526 0 -50.242105263157896 C6.698947368421052 -16.74736842105263 21.771578947368422 -6.698947368421052 0 0Z" fill="#eee3bc" stroke="#493523" stroke-width="1.8" stroke-linejoin="round" stroke-linecap="round"/><path d="M0 0 Q-6.0290526315789466 -20.096842105263157 0 -43.543157894736844" fill="none" stroke="#eee3bc" stroke-width="1" stroke-linejoin="round" stroke-linecap="round"/></g><g transform="translate(0 0) rotate(65)"><path d="M0 0 C-19.802631578947366 -8.486842105263158 -15.559210526315791 -28.289473684210527 0 -42.434210526315795 C5.657894736842106 -14.144736842105264 18.388157894736842 -5.657894736842106 0 0Z" fill="#c19a50" stroke="#493523" stroke-width="1.8" stroke-linejoin="round" stroke-linecap="round"/><path d="M0 0 Q-5.092105263157895 -16.973684210526315 0 -36.776315789473685" fill="none" stroke="#eee3bc" stroke-width="1" stroke-linejoin="round" stroke-linecap="round"/></g><path d="M0 0 V12" fill="none" stroke="#eee3bc" stroke-width="3" stroke-linejoin="round" stroke-linecap="round"/></g><g transform="translate(192 82)"><g transform="translate(0 0) rotate(-65)"><path d="M0 0 C-19.802631578947366 -8.486842105263158 -15.559210526315791 -28.289473684210527 0 -42.434210526315795 C5.657894736842106 -14.144736842105264 18.388157894736842 -5.657894736842106 0 0Z" fill="#285574" stroke="#493523" stroke-width="1.8" stroke-linejoin="round" stroke-linecap="round"/><path d="M0 0 Q-5.092105263157895 -16.973684210526315 0 -36.776315789473685" fill="none" stroke="#eee3bc" stroke-width="1" stroke-linejoin="round" stroke-linecap="round"/></g><g transform="translate(0 0) rotate(-42)"><path d="M0 0 C-23.446315789473683 -10.048421052631578 -18.422105263157896 -33.49473684210526 0 -50.242105263157896 C6.698947368421052 -16.74736842105263 21.771578947368422 -6.698947368421052 0 0Z" fill="#285574" stroke="#493523" stroke-width="1.8" stroke-linejoin="round" stroke-linecap="round"/><path d="M0 0 Q-6.0290526315789466 -20.096842105263157 0 -43.543157894736844" fill="none" stroke="#eee3bc" stroke-width="1" stroke-linejoin="round" stroke-linecap="round"/></g><g transform="translate(0 0) rotate(-20)"><path d="M0 0 C-26.93157894736842 -11.542105263157895 -21.160526315789475 -38.473684210526315 0 -57.71052631578947 C7.6947368421052635 -19.236842105263158 25.007894736842104 -7.6947368421052635 0 0Z" fill="#496341" stroke="#493523" stroke-width="1.8" stroke-linejoin="round" stroke-linecap="round"/><path d="M0 0 Q-6.925263157894737 -23.08421052631579 0 -50.01578947368421" fill="none" stroke="#eee3bc" stroke-width="1" stroke-linejoin="round" stroke-linecap="round"/></g><g transform="translate(0 0) rotate(0)"><path d="M0 0 C-30.099999999999998 -12.9 -23.650000000000002 -43.0 0 -64.5 C8.6 -21.5 27.95 -8.6 0 0Z" fill="#496341" stroke="#493523" stroke-width="1.8" stroke-linejoin="round" stroke-linecap="round"/><path d="M0 0 Q-7.739999999999999 -25.8 0 -55.9" fill="none" stroke="#eee3bc" stroke-width="1" stroke-linejoin="round" stroke-linecap="round"/></g><g transform="translate(0 0) rotate(20)"><path d="M0 0 C-26.93157894736842 -11.542105263157895 -21.160526315789475 -38.473684210526315 0 -57.71052631578947 C7.6947368421052635 -19.236842105263158 25.007894736842104 -7.6947368421052635 0 0Z" fill="#eee3bc" stroke="#493523" stroke-width="1.8" stroke-linejoin="round" stroke-linecap="round"/><path d="M0 0 Q-6.925263157894737 -23.08421052631579 0 -50.01578947368421" fill="none" stroke="#eee3bc" stroke-width="1" stroke-linejoin="round" stroke-linecap="round"/></g><g transform="translate(0 0) rotate(42)"><path d="M0 0 C-23.446315789473683 -10.048421052631578 -18.422105263157896 -33.49473684210526 0 -50.242105263157896 C6.698947368421052 -16.74736842105263 21.771578947368422 -6.698947368421052 0 0Z" fill="#eee3bc" stroke="#493523" stroke-width="1.8" stroke-linejoin="round" stroke-linecap="round"/><path d="M0 0 Q-6.0290526315789466 -20.096842105263157 0 -43.543157894736844" fill="none" stroke="#eee3bc" stroke-width="1" stroke-linejoin="round" stroke-linecap="round"/></g><g transform="translate(0 0) rotate(65)"><path d="M0 0 C-19.802631578947366 -8.486842105263158 -15.559210526315791 -28.289473684210527 0 -42.434210526315795 C5.657894736842106 -14.144736842105264 18.388157894736842 -5.657894736842106 0 0Z" fill="#c19a50" stroke="#493523" stroke-width="1.8" stroke-linejoin="round" stroke-linecap="round"/><path d="M0 0 Q-5.092105263157895 -16.973684210526315 0 -36.776315789473685" fill="none" stroke="#eee3bc" stroke-width="1" stroke-linejoin="round" stroke-linecap="round"/></g><path d="M0 0 V12" fill="none" stroke="#eee3bc" stroke-width="3" stroke-linejoin="round" stroke-linecap="round"/></g></g><g transform="translate(256 0)"><path d="M0 5 H256 M0 91 H256" fill="none" stroke="#c19a50" stroke-width="3" stroke-linejoin="round" stroke-linecap="round"/><g transform="translate(64 82)"><g transform="translate(0 0) rotate(-65)"><path d="M0 0 C-19.802631578947366 -8.486842105263158 -15.559210526315791 -28.289473684210527 0 -42.434210526315795 C5.657894736842106 -14.144736842105264 18.388157894736842 -5.657894736842106 0 0Z" fill="#285574" stroke="#493523" stroke-width="1.8" stroke-linejoin="round" stroke-linecap="round"/><path d="M0 0 Q-5.092105263157895 -16.973684210526315 0 -36.776315789473685" fill="none" stroke="#eee3bc" stroke-width="1" stroke-linejoin="round" stroke-linecap="round"/></g><g transform="translate(0 0) rotate(-42)"><path d="M0 0 C-23.446315789473683 -10.048421052631578 -18.422105263157896 -33.49473684210526 0 -50.242105263157896 C6.698947368421052 -16.74736842105263 21.771578947368422 -6.698947368421052 0 0Z" fill="#285574" stroke="#493523" stroke-width="1.8" stroke-linejoin="round" stroke-linecap="round"/><path d="M0 0 Q-6.0290526315789466 -20.096842105263157 0 -43.543157894736844" fill="none" stroke="#eee3bc" stroke-width="1" stroke-linejoin="round" stroke-linecap="round"/></g><g transform="translate(0 0) rotate(-20)"><path d="M0 0 C-26.93157894736842 -11.542105263157895 -21.160526315789475 -38.473684210526315 0 -57.71052631578947 C7.6947368421052635 -19.236842105263158 25.007894736842104 -7.6947368421052635 0 0Z" fill="#496341" stroke="#493523" stroke-width="1.8" stroke-linejoin="round" stroke-linecap="round"/><path d="M0 0 Q-6.925263157894737 -23.08421052631579 0 -50.01578947368421" fill="none" stroke="#eee3bc" stroke-width="1" stroke-linejoin="round" stroke-linecap="round"/></g><g transform="translate(0 0) rotate(0)"><path d="M0 0 C-30.099999999999998 -12.9 -23.650000000000002 -43.0 0 -64.5 C8.6 -21.5 27.95 -8.6 0 0Z" fill="#496341" stroke="#493523" stroke-width="1.8" stroke-linejoin="round" stroke-linecap="round"/><path d="M0 0 Q-7.739999999999999 -25.8 0 -55.9" fill="none" stroke="#eee3bc" stroke-width="1" stroke-linejoin="round" stroke-linecap="round"/></g><g transform="translate(0 0) rotate(20)"><path d="M0 0 C-26.93157894736842 -11.542105263157895 -21.160526315789475 -38.473684210526315 0 -57.71052631578947 C7.6947368421052635 -19.236842105263158 25.007894736842104 -7.6947368421052635 0 0Z" fill="#eee3bc" stroke="#493523" stroke-width="1.8" stroke-linejoin="round" stroke-linecap="round"/><path d="M0 0 Q-6.925263157894737 -23.08421052631579 0 -50.01578947368421" fill="none" stroke="#eee3bc" stroke-width="1" stroke-linejoin="round" stroke-linecap="round"/></g><g transform="translate(0 0) rotate(42)"><path d="M0 0 C-23.446315789473683 -10.048421052631578 -18.422105263157896 -33.49473684210526 0 -50.242105263157896 C6.698947368421052 -16.74736842105263 21.771578947368422 -6.698947368421052 0 0Z" fill="#eee3bc" stroke="#493523" stroke-width="1.8" stroke-linejoin="round" stroke-linecap="round"/><path d="M0 0 Q-6.0290526315789466 -20.096842105263157 0 -43.543157894736844" fill="none" stroke="#eee3bc" stroke-width="1" stroke-linejoin="round" stroke-linecap="round"/></g><g transform="translate(0 0) rotate(65)"><path d="M0 0 C-19.802631578947366 -8.486842105263158 -15.559210526315791 -28.289473684210527 0 -42.434210526315795 C5.657894736842106 -14.144736842105264 18.388157894736842 -5.657894736842106 0 0Z" fill="#c19a50" stroke="#493523" stroke-width="1.8" stroke-linejoin="round" stroke-linecap="round"/><path d="M0 0 Q-5.092105263157895 -16.973684210526315 0 -36.776315789473685" fill="none" stroke="#eee3bc" stroke-width="1" stroke-linejoin="round" stroke-linecap="round"/></g><path d="M0 0 V12" fill="none" stroke="#eee3bc" stroke-width="3" stroke-linejoin="round" stroke-linecap="round"/></g><g transform="translate(192 82)"><g transform="translate(0 0) rotate(-65)"><path d="M0 0 C-19.802631578947366 -8.486842105263158 -15.559210526315791 -28.289473684210527 0 -42.434210526315795 C5.657894736842106 -14.144736842105264 18.388157894736842 -5.657894736842106 0 0Z" fill="#285574" stroke="#493523" stroke-width="1.8" stroke-linejoin="round" stroke-linecap="round"/><path d="M0 0 Q-5.092105263157895 -16.973684210526315 0 -36.776315789473685" fill="none" stroke="#eee3bc" stroke-width="1" stroke-linejoin="round" stroke-linecap="round"/></g><g transform="translate(0 0) rotate(-42)"><path d="M0 0 C-23.446315789473683 -10.048421052631578 -18.422105263157896 -33.49473684210526 0 -50.242105263157896 C6.698947368421052 -16.74736842105263 21.771578947368422 -6.698947368421052 0 0Z" fill="#285574" stroke="#493523" stroke-width="1.8" stroke-linejoin="round" stroke-linecap="round"/><path d="M0 0 Q-6.0290526315789466 -20.096842105263157 0 -43.543157894736844" fill="none" stroke="#eee3bc" stroke-width="1" stroke-linejoin="round" stroke-linecap="round"/></g><g transform="translate(0 0) rotate(-20)"><path d="M0 0 C-26.93157894736842 -11.542105263157895 -21.160526315789475 -38.473684210526315 0 -57.71052631578947 C7.6947368421052635 -19.236842105263158 25.007894736842104 -7.6947368421052635 0 0Z" fill="#496341" stroke="#493523" stroke-width="1.8" stroke-linejoin="round" stroke-linecap="round"/><path d="M0 0 Q-6.925263157894737 -23.08421052631579 0 -50.01578947368421" fill="none" stroke="#eee3bc" stroke-width="1" stroke-linejoin="round" stroke-linecap="round"/></g><g transform="translate(0 0) rotate(0)"><path d="M0 0 C-30.099999999999998 -12.9 -23.650000000000002 -43.0 0 -64.5 C8.6 -21.5 27.95 -8.6 0 0Z" fill="#496341" stroke="#493523" stroke-width="1.8" stroke-linejoin="round" stroke-linecap="round"/><path d="M0 0 Q-7.739999999999999 -25.8 0 -55.9" fill="none" stroke="#eee3bc" stroke-width="1" stroke-linejoin="round" stroke-linecap="round"/></g><g transform="translate(0 0) rotate(20)"><path d="M0 0 C-26.93157894736842 -11.542105263157895 -21.160526315789475 -38.473684210526315 0 -57.71052631578947 C7.6947368421052635 -19.236842105263158 25.007894736842104 -7.6947368421052635 0 0Z" fill="#eee3bc" stroke="#493523" stroke-width="1.8" stroke-linejoin="round" stroke-linecap="round"/><path d="M0 0 Q-6.925263157894737 -23.08421052631579 0 -50.01578947368421" fill="none" stroke="#eee3bc" stroke-width="1" stroke-linejoin="round" stroke-linecap="round"/></g><g transform="translate(0 0) rotate(42)"><path d="M0 0 C-23.446315789473683 -10.048421052631578 -18.422105263157896 -33.49473684210526 0 -50.242105263157896 C6.698947368421052 -16.74736842105263 21.771578947368422 -6.698947368421052 0 0Z" fill="#eee3bc" stroke="#493523" stroke-width="1.8" stroke-linejoin="round" stroke-linecap="round"/><path d="M0 0 Q-6.0290526315789466 -20.096842105263157 0 -43.543157894736844" fill="none" stroke="#eee3bc" stroke-width="1" stroke-linejoin="round" stroke-linecap="round"/></g><g transform="translate(0 0) rotate(65)"><path d="M0 0 C-19.802631578947366 -8.486842105263158 -15.559210526315791 -28.289473684210527 0 -42.434210526315795 C5.657894736842106 -14.144736842105264 18.388157894736842 -5.657894736842106 0 0Z" fill="#c19a50" stroke="#493523" stroke-width="1.8" stroke-linejoin="round" stroke-linecap="round"/><path d="M0 0 Q-5.092105263157895 -16.973684210526315 0 -36.776315789473685" fill="none" stroke="#eee3bc" stroke-width="1" stroke-linejoin="round" stroke-linecap="round"/></g><path d="M0 0 V12" fill="none" stroke="#eee3bc" stroke-width="3" stroke-linejoin="round" stroke-linecap="round"/></g></g></svg></g></svg>
