<svg xmlns="http://www.w3.org/2000/svg" width="448" height="448" viewBox="0 0 448 448"><title>plate-23-crossed-ribbon-knots nine-slice border</title><g transform="translate(0 0)"><rect x="0" y="0" width="96" height="96" fill="#943e2e" stroke="none" stroke-width="1"/><path d="M96 5 H5 V96 M96 91 H91 V96" fill="none" stroke="#c19a50" stroke-width="3" stroke-linejoin="round" stroke-linecap="round"/><path d="M48 19 L77 48 L48 77 L19 48Z" fill="#285574" stroke="#eee3bc" stroke-width="3" stroke-linejoin="round" stroke-linecap="round"/><path d="M43.1 34 H52.9 V43.1 H62 V52.9 H52.9 V62 H43.1 V52.9 H34 V43.1 H43.1Z" fill="#943e2e" stroke="#eee3bc" stroke-width="2" stroke-linejoin="round" stroke-linecap="round"/></g><g transform="translate(448 0) rotate(90)"><rect x="0" y="0" width="96" height="96" fill="#943e2e" stroke="none" stroke-width="1"/><path d="M96 5 H5 V96 M96 91 H91 V96" fill="none" stroke="#c19a50" stroke-width="3" stroke-linejoin="round" stroke-linecap="round"/><path d="M48 19 L77 48 L48 77 L19 48Z" fill="#285574" stroke="#eee3bc" stroke-width="3" stroke-linejoin="round" stroke-linecap="round"/><path d="M43.1 34 H52.9 V43.1 H62 V52.9 H52.9 V62 H43.1 V52.9 H34 V43.1 H43.1Z" fill="#943e2e" stroke="#eee3bc" stroke-width="2" stroke-linejoin="round" stroke-linecap="round"/></g><g transform="translate(448 448) rotate(180)"><rect x="0" y="0" width="96" height="96" fill="#943e2e" stroke="none" stroke-width="1"/><path d="M96 5 H5 V96 M96 91 H91 V96" fill="none" stroke="#c19a50" stroke-width="3" stroke-linejoin="round" stroke-linecap="round"/><path d="M48 19 L77 48 L48 77 L19 48Z" fill="#285574" stroke="#eee3bc" stroke-width="3" stroke-linejoin="round" stroke-linecap="round"/><path d="M43.1 34 H52.9 V43.1 H62 V52.9 H52.9 V62 H43.1 V52.9 H34 V43.1 H43.1Z" fill="#943e2e" stroke="#eee3bc" stroke-width="2" stroke-linejoin="round" stroke-linecap="round"/></g><g transform="translate(0 448) rotate(270)"><rect x="0" y="0" width="96" height="96" fill="#943e2e" stroke="none" stroke-width="1"/><path d="M96 5 H5 V96 M96 91 H91 V96" fill="none" stroke="#c19a50" stroke-width="3" stroke-linejoin="round" stroke-linecap="round"/><path d="M48 19 L77 48 L48 77 L19 48Z" fill="#285574" stroke="#eee3bc" stroke-width="3" stroke-linejoin="round" stroke-linecap="round"/><path d="M43.1 34 H52.9 V43.1 H62 V52.9 H52.9 V62 H43.1 V52.9 H34 V43.1 H43.1Z" fill="#943e2e" stroke="#eee3bc" stroke-width="2" stroke-linejoin="round" stroke-linecap="round"/></g><g transform="translate(96 0)"><svg width="256" height="96" viewBox="0 0 256 96" overflow="hidden"><rect x="0" y="0" width="256" height="96" fill="#943e2e" stroke="none" stroke-width="1"/><g transform="translate(-256 0)"><path d="M0 5 H256 M0 91 H256" fill="none" stroke="#c19a50" stroke-width="3" stroke-linejoin="round" stroke-linecap="round"/><path d="M35 19 L93 77 L78 77 L35 34Z" fill="#496341" stroke="#c19a50" stroke-width="4" stroke-linejoin="round" stroke-linecap="round"/><path d="M93 19 L35 77 L50 77 L93 34Z" fill="#943e2e" stroke="#eee3bc" stroke-width="3" stroke-linejoin="round" stroke-linecap="round"/><circle cx="64" cy="48" r="8" fill="#c19a50" stroke="#493523" stroke-width="2"/><path d="M163 19 L221 77 L206 77 L163 34Z" fill="#496341" stroke="#c19a50" stroke-width="4" stroke-linejoin="round" stroke-linecap="round"/><path d="M221 19 L163 77 L178 77 L221 34Z" fill="#943e2e" stroke="#eee3bc" stroke-width="3" stroke-linejoin="round" stroke-linecap="round"/><circle cx="192" cy="48" r="8" fill="#c19a50" stroke="#493523" stroke-width="2"/></g><g transform="translate(0 0)"><path d="M0 5 H256 M0 91 H256" fill="none" stroke="#c19a50" stroke-width="3" stroke-linejoin="round" stroke-linecap="round"/><path d="M35 19 L93 77 L78 77 L35 34Z" fill="#496341" stroke="#c19a50" stroke-width="4" stroke-linejoin="round" stroke-linecap="round"/><path d="M93 19 L35 77 L50 77 L93 34Z" fill="#943e2e" stroke="#eee3bc" stroke-width="3" stroke-linejoin="round" stroke-linecap="round"/><circle cx="64" cy="48" r="8" fill="#c19a50" stroke="#493523" stroke-width="2"/><path d="M163 19 L221 77 L206 77 L163 34Z" fill="#496341" stroke="#c19a50" stroke-width="4" stroke-linejoin="round" stroke-linecap="round"/><path d="M221 19 L163 77 L178 77 L221 34Z" fill="#943e2e" stroke="#eee3bc" stroke-width="3" stroke-linejoin="round" stroke-linecap="round"/><circle cx="192" cy="48" r="8" fill="#c19a50" stroke="#493523" stroke-width="2"/></g><g transform="translate(256 0)"><path d="M0 5 H256 M0 91 H256" fill="none" stroke="#c19a50" stroke-width="3" stroke-linejoin="round" stroke-linecap="round"/><path d="M35 19 L93 77 L78 77 L35 34Z" fill="#496341" stroke="#c19a50" stroke-width="4" stroke-linejoin="round" stroke-linecap="round"/><path d="M93 19 L35 77 L50 77 L93 34Z" fill="#943e2e" stroke="#eee3bc" stroke-width="3" stroke-linejoin="round" stroke-linecap="round"/><circle cx="64" cy="48" r="8" fill="#c19a50" stroke="#493523" stroke-width="2"/><path d="M163 19 L221 77 L206 77 L163 34Z" fill="#496341" stroke="#c19a50" stroke-width="4" stroke-linejoin="round" stroke-linecap="round"/><path d="M221 19 L163 77 L178 77 L221 34Z" fill="#943e2e" stroke="#eee3bc" stroke-width="3" stroke-linejoin="round" stroke-linecap="round"/><circle cx="192" cy="48" r="8" fill="#c19a50" stroke="#493523" stroke-width="2"/></g></svg></g><g transform="translate(448 96) rotate(90)"><svg width="256" height="96" viewBox="0 0 256 96" overflow="hidden"><rect x="0" y="0" width="256" height="96" fill="#943e2e" stroke="none" stroke-width="1"/><g transform="translate(-256 0)"><path d="M0 5 H256 M0 91 H256" fill="none" stroke="#c19a50" stroke-width="3" stroke-linejoin="round" stroke-linecap="round"/><path d="M35 19 L93 77 L78 77 L35 34Z" fill="#496341" stroke="#c19a50" stroke-width="4" stroke-linejoin="round" stroke-linecap="round"/><path d="M93 19 L35 77 L50 77 L93 34Z" fill="#943e2e" stroke="#eee3bc" stroke-width="3" stroke-linejoin="round" stroke-linecap="round"/><circle cx="64" cy="48" r="8" fill="#c19a50" stroke="#493523" stroke-width="2"/><path d="M163 19 L221 77 L206 77 L163 34Z" fill="#496341" stroke="#c19a50" stroke-width="4" stroke-linejoin="round" stroke-linecap="round"/><path d="M221 19 L163 77 L178 77 L221 34Z" fill="#943e2e" stroke="#eee3bc" stroke-width="3" stroke-linejoin="round" stroke-linecap="round"/><circle cx="192" cy="48" r="8" fill="#c19a50" stroke="#493523" stroke-width="2"/></g><g transform="translate(0 0)"><path d="M0 5 H256 M0 91 H256" fill="none" stroke="#c19a50" stroke-width="3" stroke-linejoin="round" stroke-linecap="round"/><path d="M35 19 L93 77 L78 77 L35 34Z" fill="#496341" stroke="#c19a50" stroke-width="4" stroke-linejoin="round" stroke-linecap="round"/><path d="M93 19 L35 77 L50 77 L93 34Z" fill="#943e2e" stroke="#eee3bc" stroke-width="3" stroke-linejoin="round" stroke-linecap="round"/><circle cx="64" cy="48" r="8" fill="#c19a50" stroke="#493523" stroke-width="2"/><path d="M163 19 L221 77 L206 77 L163 34Z" fill="#496341" stroke="#c19a50" stroke-width="4" stroke-linejoin="round" stroke-linecap="round"/><path d="M221 19 L163 77 L178 77 L221 34Z" fill="#943e2e" stroke="#eee3bc" stroke-width="3" stroke-linejoin="round" stroke-linecap="round"/><circle cx="192" cy="48" r="8" fill="#c19a50" stroke="#493523" stroke-width="2"/></g><g transform="translate(256 0)"><path d="M0 5 H256 M0 91 H256" fill="none" stroke="#c19a50" stroke-width="3" stroke-linejoin="round" stroke-linecap="round"/><path d="M35 19 L93 77 L78 77 L35 34Z" fill="#496341" stroke="#c19a50" stroke-width="4" stroke-linejoin="round" stroke-linecap="round"/><path d="M93 19 L35 77 L50 77 L93 34Z" fill="#943e2e" stroke="#eee3bc" stroke-width="3" stroke-linejoin="round" stroke-linecap="round"/><circle cx="64" cy="48" r="8" fill="#c19a50" stroke="#493523" stroke-width="2"/><path d="M163 19 L221 77 L206 77 L163 34Z" fill="#496341" stroke="#c19a50" stroke-width="4" stroke-linejoin="round" stroke-linecap="round"/><path d="M221 19 L163 77 L178 77 L221 34Z" fill="#943e2e" stroke="#eee3bc" stroke-width="3" stroke-linejoin="round" stroke-linecap="round"/><circle cx="192" cy="48" r="8" fill="#c19a50" stroke="#493523" stroke-width="2"/></g></svg></g><g transform="translate(352 448) rotate(180)"><svg width="256" height="96" viewBox="0 0 256 96" overflow="hidden"><rect x="0" y="0" width="256" height="96" fill="#943e2e" stroke="none" stroke-width="1"/><g transform="translate(-256 0)"><path d="M0 5 H256 M0 91 H256" fill="none" stroke="#c19a50" stroke-width="3" stroke-linejoin="round" stroke-linecap="round"/><path d="M35 19 L93 77 L78 77 L35 34Z" fill="#496341" stroke="#c19a50" stroke-width="4" stroke-linejoin="round" stroke-linecap="round"/><path d="M93 19 L35 77 L50 77 L93 34Z" fill="#943e2e" stroke="#eee3bc" stroke-width="3" stroke-linejoin="round" stroke-linecap="round"/><circle cx="64" cy="48" r="8" fill="#c19a50" stroke="#493523" stroke-width="2"/><path d="M163 19 L221 77 L206 77 L163 34Z" fill="#496341" stroke="#c19a50" stroke-width="4" stroke-linejoin="round" stroke-linecap="round"/><path d="M221 19 L163 77 L178 77 L221 34Z" fill="#943e2e" stroke="#eee3bc" stroke-width="3" stroke-linejoin="round" stroke-linecap="round"/><circle cx="192" cy="48" r="8" fill="#c19a50" stroke="#493523" stroke-width="2"/></g><g transform="translate(0 0)"><path d="M0 5 H256 M0 91 H256" fill="none" stroke="#c19a50" stroke-width="3" stroke-linejoin="round" stroke-linecap="round"/><path d="M35 19 L93 77 L78 77 L35 34Z" fill="#496341" stroke="#c19a50" stroke-width="4" stroke-linejoin="round" stroke-linecap="round"/><path d="M93 19 L35 77 L50 77 L93 34Z" fill="#943e2e" stroke="#eee3bc" stroke-width="3" stroke-linejoin="round" stroke-linecap="round"/><circle cx="64" cy="48" r="8" fill="#c19a50" stroke="#493523" stroke-width="2"/><path d="M163 19 L221 77 L206 77 L163 34Z" fill="#496341" stroke="#c19a50" stroke-width="4" stroke-linejoin="round" stroke-linecap="round"/><path d="M221 19 L163 77 L178 77 L221 34Z" fill="#943e2e" stroke="#eee3bc" stroke-width="3" stroke-linejoin="round" stroke-linecap="round"/><circle cx="192" cy="48" r="8" fill="#c19a50" stroke="#493523" stroke-width="2"/></g><g transform="translate(256 0)"><path d="M0 5 H256 M0 91 H256" fill="none" stroke="#c19a50" stroke-width="3" stroke-linejoin="round" stroke-linecap="round"/><path d="M35 19 L93 77 L78 77 L35 34Z" fill="#496341" stroke="#c19a50" stroke-width="4" stroke-linejoin="round" stroke-linecap="round"/><path d="M93 19 L35 77 L50 77 L93 34Z" fill="#943e2e" stroke="#eee3bc" stroke-width="3" stroke-linejoin="round" stroke-linecap="round"/><circle cx="64" cy="48" r="8" fill="#c19a50" stroke="#493523" stroke-width="2"/><path d="M163 19 L221 77 L206 77 L163 34Z" fill="#496341" stroke="#c19a50" stroke-width="4" stroke-linejoin="round" stroke-linecap="round"/><path d="M221 19 L163 77 L178 77 L221 34Z" fill="#943e2e" stroke="#eee3bc" stroke-width="3" stroke-linejoin="round" stroke-linecap="round"/><circle cx="192" cy="48" r="8" fill="#c19a50" stroke="#493523" stroke-width="2"/></g></svg></g><g transform="translate(0 352) rotate(270)"><svg width="256" height="96" viewBox="0 0 256 96" overflow="hidden"><rect x="0" y="0" width="256" height="96" fill="#943e2e" stroke="none" stroke-width="1"/><g transform="translate(-256 0)"><path d="M0 5 H256 M0 91 H256" fill="none" stroke="#c19a50" stroke-width="3" stroke-linejoin="round" stroke-linecap="round"/><path d="M35 19 L93 77 L78 77 L35 34Z" fill="#496341" stroke="#c19a50" stroke-width="4" stroke-linejoin="round" stroke-linecap="round"/><path d="M93 19 L35 77 L50 77 L93 34Z" fill="#943e2e" stroke="#eee3bc" stroke-width="3" stroke-linejoin="round" stroke-linecap="round"/><circle cx="64" cy="48" r="8" fill="#c19a50" stroke="#493523" stroke-width="2"/><path d="M163 19 L221 77 L206 77 L163 34Z" fill="#496341" stroke="#c19a50" stroke-width="4" stroke-linejoin="round" stroke-linecap="round"/><path d="M221 19 L163 77 L178 77 L221 34Z" fill="#943e2e" stroke="#eee3bc" stroke-width="3" stroke-linejoin="round" stroke-linecap="round"/><circle cx="192" cy="48" r="8" fill="#c19a50" stroke="#493523" stroke-width="2"/></g><g transform="translate(0 0)"><path d="M0 5 H256 M0 91 H256" fill="none" stroke="#c19a50" stroke-width="3" stroke-linejoin="round" stroke-linecap="round"/><path d="M35 19 L93 77 L78 77 L35 34Z" fill="#496341" stroke="#c19a50" stroke-width="4" stroke-linejoin="round" stroke-linecap="round"/><path d="M93 19 L35 77 L50 77 L93 34Z" fill="#943e2e" stroke="#eee3bc" stroke-width="3" stroke-linejoin="round" stroke-linecap="round"/><circle cx="64" cy="48" r="8" fill="#c19a50" stroke="#493523" stroke-width="2"/><path d="M163 19 L221 77 L206 77 L163 34Z" fill="#496341" stroke="#c19a50" stroke-width="4" stroke-linejoin="round" stroke-linecap="round"/><path d="M221 19 L163 77 L178 77 L221 34Z" fill="#943e2e" stroke="#eee3bc" stroke-width="3" stroke-linejoin="round" stroke-linecap="round"/><circle cx="192" cy="48" r="8" fill="#c19a50" stroke="#493523" stroke-width="2"/></g><g transform="translate(256 0)"><path d="M0 5 H256 M0 91 H256" fill="none" stroke="#c19a50" stroke-width="3" stroke-linejoin="round" stroke-linecap="round"/><path d="M35 19 L93 77 L78 77 L35 34Z" fill="#496341" stroke="#c19a50" stroke-width="4" stroke-linejoin="round" stroke-linecap="round"/><path d="M93 19 L35 77 L50 77 L93 34Z" fill="#943e2e" stroke="#eee3bc" stroke-width="3" stroke-linejoin="round" stroke-linecap="round"/><circle cx="64" cy="48" r="8" fill="#c19a50" stroke="#493523" stroke-width="2"/><path d="M163 19 L221 77 L206 77 L163 34Z" fill="#496341" stroke="#c19a50" stroke-width="4" stroke-linejoin="round" stroke-linecap="round"/><path d="M221 19 L163 77 L178 77 L221 34Z" fill="#943e2e" stroke="#eee3bc" stroke-width="3" stroke-linejoin="round" stroke-linecap="round"/><circle cx="192" cy="48" r="8" fill="#c19a50" stroke="#493523" stroke-width="2"/></g></svg></g></svg>
