<svg xmlns="http://www.w3.org/2000/svg" width="256" height="96" viewBox="0 0 256 96"><title>plate-16-stepped-corner</title><svg width="256" height="96" viewBox="0 0 256 96" overflow="hidden"><rect x="0" y="0" width="256" height="96" fill="#285574" stroke="none" stroke-width="1"/><g transform="translate(-256 0)"><path d="M0 5 H256 M0 91 H256" fill="none" stroke="#c19a50" stroke-width="3" stroke-linejoin="round" stroke-linecap="round"/><path d="M35 19 V77 H93 V38 H54 V19" fill="none" stroke="#c19a50" stroke-width="5" stroke-linejoin="round" stroke-linecap="round"/><path d="M44 19 V68 H84 V47 H63 V28" fill="none" stroke="#943e2e" stroke-width="5" stroke-linejoin="round" stroke-linecap="round"/><path d="M53 19 V59 H75 V56 H72 V37" fill="none" stroke="#c19a50" stroke-width="5" stroke-linejoin="round" stroke-linecap="round"/><g transform="translate(88 70)"><g transform="rotate(0.0)"><path d="M0 0 C-7 -2.1 -5.25 -9.1 0 -7 C5.25 -9.1 7 -2.1 0 0Z" fill="#285574" stroke="#493523" stroke-width="2" stroke-linejoin="round" stroke-linecap="round"/></g><g transform="rotate(90.0)"><path d="M0 0 C-7 -2.1 -5.25 -9.1 0 -7 C5.25 -9.1 7 -2.1 0 0Z" fill="#285574" stroke="#493523" stroke-width="2" stroke-linejoin="round" stroke-linecap="round"/></g><g transform="rotate(180.0)"><path d="M0 0 C-7 -2.1 -5.25 -9.1 0 -7 C5.25 -9.1 7 -2.1 0 0Z" fill="#285574" stroke="#493523" stroke-width="2" stroke-linejoin="round" stroke-linecap="round"/></g><g transform="rotate(270.0)"><path d="M0 0 C-7 -2.1 -5.25 -9.1 0 -7 C5.25 -9.1 7 -2.1 0 0Z" fill="#285574" stroke="#493523" stroke-width="2" stroke-linejoin="round" stroke-linecap="round"/></g><circle cx="0" cy="0" r="1.75" fill="#c19a50" stroke="#493523" stroke-width="1.5"/></g><path d="M163 19 V77 H221 V38 H182 V19" fill="none" stroke="#c19a50" stroke-width="5" stroke-linejoin="round" stroke-linecap="round"/><path d="M172 19 V68 H212 V47 H191 V28" fill="none" stroke="#943e2e" stroke-width="5" stroke-linejoin="round" stroke-linecap="round"/><path d="M181 19 V59 H203 V56 H200 V37" fill="none" stroke="#c19a50" stroke-width="5" stroke-linejoin="round" stroke-linecap="round"/><g transform="translate(216 70)"><g transform="rotate(0.0)"><path d="M0 0 C-7 -2.1 -5.25 -9.1 0 -7 C5.25 -9.1 7 -2.1 0 0Z" fill="#285574" stroke="#493523" stroke-width="2" stroke-linejoin="round" stroke-linecap="round"/></g><g transform="rotate(90.0)"><path d="M0 0 C-7 -2.1 -5.25 -9.1 0 -7 C5.25 -9.1 7 -2.1 0 0Z" fill="#285574" stroke="#493523" stroke-width="2" stroke-linejoin="round" stroke-linecap="round"/></g><g transform="rotate(180.0)"><path d="M0 0 C-7 -2.1 -5.25 -9.1 0 -7 C5.25 -9.1 7 -2.1 0 0Z" fill="#285574" stroke="#493523" stroke-width="2" stroke-linejoin="round" stroke-linecap="round"/></g><g transform="rotate(270.0)"><path d="M0 0 C-7 -2.1 -5.25 -9.1 0 -7 C5.25 -9.1 7 -2.1 0 0Z" fill="#285574" stroke="#493523" stroke-width="2" stroke-linejoin="round" stroke-linecap="round"/></g><circle cx="0" cy="0" r="1.75" fill="#c19a50" stroke="#493523" stroke-width="1.5"/></g></g><g transform="translate(0 0)"><path d="M0 5 H256 M0 91 H256" fill="none" stroke="#c19a50" stroke-width="3" stroke-linejoin="round" stroke-linecap="round"/><path d="M35 19 V77 H93 V38 H54 V19" fill="none" stroke="#c19a50" stroke-width="5" stroke-linejoin="round" stroke-linecap="round"/><path d="M44 19 V68 H84 V47 H63 V28" fill="none" stroke="#943e2e" stroke-width="5" stroke-linejoin="round" stroke-linecap="round"/><path d="M53 19 V59 H75 V56 H72 V37" fill="none" stroke="#c19a50" stroke-width="5" stroke-linejoin="round" stroke-linecap="round"/><g transform="translate(88 70)"><g transform="rotate(0.0)"><path d="M0 0 C-7 -2.1 -5.25 -9.1 0 -7 C5.25 -9.1 7 -2.1 0 0Z" fill="#285574" stroke="#493523" stroke-width="2" stroke-linejoin="round" stroke-linecap="round"/></g><g transform="rotate(90.0)"><path d="M0 0 C-7 -2.1 -5.25 -9.1 0 -7 C5.25 -9.1 7 -2.1 0 0Z" fill="#285574" stroke="#493523" stroke-width="2" stroke-linejoin="round" stroke-linecap="round"/></g><g transform="rotate(180.0)"><path d="M0 0 C-7 -2.1 -5.25 -9.1 0 -7 C5.25 -9.1 7 -2.1 0 0Z" fill="#285574" stroke="#493523" stroke-width="2" stroke-linejoin="round" stroke-linecap="round"/></g><g transform="rotate(270.0)"><path d="M0 0 C-7 -2.1 -5.25 -9.1 0 -7 C5.25 -9.1 7 -2.1 0 0Z" fill="#285574" stroke="#493523" stroke-width="2" stroke-linejoin="round" stroke-linecap="round"/></g><circle cx="0" cy="0" r="1.75" fill="#c19a50" stroke="#493523" stroke-width="1.5"/></g><path d="M163 19 V77 H221 V38 H182 V19" fill="none" stroke="#c19a50" stroke-width="5" stroke-linejoin="round" stroke-linecap="round"/><path d="M172 19 V68 H212 V47 H191 V28" fill="none" stroke="#943e2e" stroke-width="5" stroke-linejoin="round" stroke-linecap="round"/><path d="M181 19 V59 H203 V56 H200 V37" fill="none" stroke="#c19a50" stroke-width="5" stroke-linejoin="round" stroke-linecap="round"/><g transform="translate(216 70)"><g transform="rotate(0.0)"><path d="M0 0 C-7 -2.1 -5.25 -9.1 0 -7 C5.25 -9.1 7 -2.1 0 0Z" fill="#285574" stroke="#493523" stroke-width="2" stroke-linejoin="round" stroke-linecap="round"/></g><g transform="rotate(90.0)"><path d="M0 0 C-7 -2.1 -5.25 -9.1 0 -7 C5.25 -9.1 7 -2.1 0 0Z" fill="#285574" stroke="#493523" stroke-width="2" stroke-linejoin="round" stroke-linecap="round"/></g><g transform="rotate(180.0)"><path d="M0 0 C-7 -2.1 -5.25 -9.1 0 -7 C5.25 -9.1 7 -2.1 0 0Z" fill="#285574" stroke="#493523" stroke-width="2" stroke-linejoin="round" stroke-linecap="round"/></g><g transform="rotate(270.0)"><path d="M0 0 C-7 -2.1 -5.25 -9.1 0 -7 C5.25 -9.1 7 -2.1 0 0Z" fill="#285574" stroke="#493523" stroke-width="2" stroke-linejoin="round" stroke-linecap="round"/></g><circle cx="0" cy="0" r="1.75" fill="#c19a50" stroke="#493523" stroke-width="1.5"/></g></g><g transform="translate(256 0)"><path d="M0 5 H256 M0 91 H256" fill="none" stroke="#c19a50" stroke-width="3" stroke-linejoin="round" stroke-linecap="round"/><path d="M35 19 V77 H93 V38 H54 V19" fill="none" stroke="#c19a50" stroke-width="5" stroke-linejoin="round" stroke-linecap="round"/><path d="M44 19 V68 H84 V47 H63 V28" fill="none" stroke="#943e2e" stroke-width="5" stroke-linejoin="round" stroke-linecap="round"/><path d="M53 19 V59 H75 V56 H72 V37" fill="none" stroke="#c19a50" stroke-width="5" stroke-linejoin="round" stroke-linecap="round"/><g transform="translate(88 70)"><g transform="rotate(0.0)"><path d="M0 0 C-7 -2.1 -5.25 -9.1 0 -7 C5.25 -9.1 7 -2.1 0 0Z" fill="#285574" stroke="#493523" stroke-width="2" stroke-linejoin="round" stroke-linecap="round"/></g><g transform="rotate(90.0)"><path d="M0 0 C-7 -2.1 -5.25 -9.1 0 -7 C5.25 -9.1 7 -2.1 0 0Z" fill="#285574" stroke="#493523" stroke-width="2" stroke-linejoin="round" stroke-linecap="round"/></g><g transform="rotate(180.0)"><path d="M0 0 C-7 -2.1 -5.25 -9.1 0 -7 C5.25 -9.1 7 -2.1 0 0Z" fill="#285574" stroke="#493523" stroke-width="2" stroke-linejoin="round" stroke-linecap="round"/></g><g transform="rotate(270.0)"><path d="M0 0 C-7 -2.1 -5.25 -9.1 0 -7 C5.25 -9.1 7 -2.1 0 0Z" fill="#285574" stroke="#493523" stroke-width="2" stroke-linejoin="round" stroke-linecap="round"/></g><circle cx="0" cy="0" r="1.75" fill="#c19a50" stroke="#493523" stroke-width="1.5"/></g><path d="M163 19 V77 H221 V38 H182 V19" fill="none" stroke="#c19a50" stroke-width="5" stroke-linejoin="round" stroke-linecap="round"/><path d="M172 19 V68 H212 V47 H191 V28" fill="none" stroke="#943e2e" stroke-width="5" stroke-linejoin="round" stroke-linecap="round"/><path d="M181 19 V59 H203 V56 H200 V37" fill="none" stroke="#c19a50" stroke-width="5" stroke-linejoin="round" stroke-linecap="round"/><g transform="translate(216 70)"><g transform="rotate(0.0)"><path d="M0 0 C-7 -2.1 -5.25 -9.1 0 -7 C5.25 -9.1 7 -2.1 0 0Z" fill="#285574" stroke="#493523" stroke-width="2" stroke-linejoin="round" stroke-linecap="round"/></g><g transform="rotate(90.0)"><path d="M0 0 C-7 -2.1 -5.25 -9.1 0 -7 C5.25 -9.1 7 -2.1 0 0Z" fill="#285574" stroke="#493523" stroke-width="2" stroke-linejoin="round" stroke-linecap="round"/></g><g transform="rotate(180.0)"><path d="M0 0 C-7 -2.1 -5.25 -9.1 0 -7 C5.25 -9.1 7 -2.1 0 0Z" fill="#285574" stroke="#493523" stroke-width="2" stroke-linejoin="round" stroke-linecap="round"/></g><g transform="rotate(270.0)"><path d="M0 0 C-7 -2.1 -5.25 -9.1 0 -7 C5.25 -9.1 7 -2.1 0 0Z" fill="#285574" stroke="#493523" stroke-width="2" stroke-linejoin="round" stroke-linecap="round"/></g><circle cx="0" cy="0" r="1.75" fill="#c19a50" stroke="#493523" stroke-width="1.5"/></g></g></svg></svg>
